<svg width="24" height="25" viewBox="0 0 24 25" fill="none" xmlns="http://www.w3.org/2000/svg">
<path d="M22.56 13.0156C22.56 12.2356 22.49 11.4856 22.36 10.7656H12V15.0256H17.92C17.66 16.3956 16.88 17.5556 15.71 18.3356V21.1056H19.28C21.36 19.1856 22.56 16.3656 22.56 13.0156Z" fill="#4285F4"/>
<path d="M11.9997 23.7652C14.9697 23.7652 17.4597 22.7852 19.2797 21.1052L15.7097 18.3352C14.7297 18.9952 13.4797 19.3952 11.9997 19.3952C9.13969 19.3952 6.70969 17.4652 5.83969 14.8652H2.17969V17.7052C3.98969 21.2952 7.69969 23.7652 11.9997 23.7652Z" fill="#34A853"/>
<path d="M5.84 14.8559C5.62 14.1959 5.49 13.4959 5.49 12.7659C5.49 12.0359 5.62 11.3359 5.84 10.6759V7.83594H2.18C1.43 9.31594 1 10.9859 1 12.7659C1 14.5459 1.43 16.2159 2.18 17.6959L5.03 15.4759L5.84 14.8559Z" fill="#FBBC05"/>
<path d="M11.9997 6.14563C13.6197 6.14563 15.0597 6.70563 16.2097 7.78562L19.3597 4.63562C17.4497 2.85562 14.9697 1.76562 11.9997 1.76562C7.69969 1.76562 3.98969 4.23563 2.17969 7.83563L5.83969 10.6756C6.70969 8.07562 9.13969 6.14563 11.9997 6.14563Z" fill="#EA4335"/>
</svg>
