<svg width="126" height="43" viewBox="0 0 126 43" fill="none" xmlns="http://www.w3.org/2000/svg">
<g clip-path="url(#clip0_1598_11140)">
<path d="M0.111328 0.8125C2.28753 0.861403 4.46678 0.858347 6.63992 0.980605C7.84111 1.04785 9.08815 1.16705 10.216 1.54605C11.8267 2.08704 12.7773 3.33408 12.9301 5.0732C13.086 6.84901 12.4411 8.24581 10.8548 9.15052C10.6469 9.26972 10.4452 9.39809 10.1976 9.54786C10.3688 9.69457 10.4666 9.82294 10.595 9.88101C12.9148 10.9569 13.9174 12.4393 13.7431 14.5421C13.5475 16.8711 12.1874 18.5705 9.67499 19.0137C7.6455 19.3713 5.5396 19.3194 3.46426 19.4111C2.34866 19.46 1.22999 19.4324 0.114385 19.4416V0.8125H0.111328ZM3.48872 16.7733C5.28591 16.6297 7.00059 16.6052 8.66941 16.3179C9.81253 16.1223 10.4666 15.2298 10.5033 14.0042C10.5369 12.8763 10.1335 11.8463 9.00562 11.6446C7.20537 11.3237 5.35621 11.2839 3.48872 11.1219V16.7733ZM3.48872 8.34362C5.01694 8.34362 6.39846 8.4781 7.74025 8.30388C8.95366 8.14495 9.73612 7.33804 9.67499 5.97486C9.61692 4.66975 8.77333 4.01873 7.63327 3.90258C6.29149 3.7681 4.92831 3.87202 3.48872 3.87202V8.34362Z" fill="#231F20"/>
<path d="M0.111328 24.3416C3.40313 24.3477 6.70105 24.2621 9.98675 24.3966C11.8879 24.473 13.138 25.6772 13.6942 27.505C14.2291 29.2655 13.6117 31.1116 12.1629 32.2639C11.9398 32.4412 11.6984 32.6001 11.4355 32.7866C14.44 34.7244 15.25 36.6988 14.2597 39.3366C13.5414 41.253 11.9521 42.0507 10.1946 42.6742H0.111328V24.3446V24.3416ZM2.65736 34.3148V40.5744C4.9008 40.5744 7.03726 40.6356 9.16761 40.5561C11.0504 40.4888 12.1416 39.2877 12.218 37.4171C12.2883 35.7422 11.3713 34.5135 9.50077 34.3576C7.28484 34.1742 5.0414 34.3148 2.6543 34.3148H2.65736ZM2.62374 32.2609C4.92525 32.1569 7.15952 32.1783 9.36017 31.9124C10.8028 31.7382 11.4477 30.6043 11.4447 29.1433C11.4416 27.6792 10.8395 26.5544 9.32655 26.4566C7.11979 26.313 4.89774 26.42 2.62679 26.42V32.2609H2.62374Z" fill="#231F20"/>
<path d="M16.3105 42.6687V24.3086H28.9826C29.0101 24.8832 29.0346 25.415 29.0682 26.1333H18.8627V32.127H28.2216V34.1443H18.826V40.5506H29.1477V42.6687H16.3105Z" fill="#231F20"/>
<path d="M41.6777 42.6686C43.9089 36.9469 46.1677 31.2343 48.3469 25.4913C48.7168 24.5162 49.1966 24.1984 50.2236 24.1953C51.2628 24.1953 51.7213 24.5407 52.088 25.5065C54.2795 31.2435 56.5505 36.9499 58.7939 42.6655H56.0431C55.5113 41.1373 55.0497 39.5754 54.4048 38.0961C54.2092 37.6498 53.5123 37.173 53.0233 37.1455C51.1008 37.0355 49.163 37.0324 47.2374 37.1455C46.7545 37.173 46.0882 37.6774 45.8773 38.1328C45.1988 39.5999 44.6945 41.1464 44.1229 42.6624H41.6777V42.6686ZM53.2892 34.9938C52.2531 32.1024 51.2781 29.376 50.1625 26.2645C49.0255 29.4188 48.0443 32.1452 47.0204 34.9938H53.2892Z" fill="#231F20"/>
<path d="M36.4827 42.6696V26.2656H30.5074C30.4707 25.6023 30.4401 25.0705 30.4004 24.3828H45.0592V26.1586H38.9249V42.6727H36.4797L36.4827 42.6696Z" fill="#231F20"/>
<path d="M111.967 23.5381C112.524 22.7832 113.089 22.019 113.706 21.1846C115.809 22.7923 118.034 23.5778 120.428 22.2972C122.044 21.4322 122.057 19.7512 122.017 17.8867C120.195 19.473 118.16 19.9896 116.103 19.2743C114.883 18.8495 113.642 17.9692 112.841 16.9514C110.904 14.494 111.347 10.3556 113.529 8.25581C115.794 6.0735 119.067 6.09795 122.029 8.3903C122.124 7.92877 122.209 7.51004 122.313 7.01489H125.107V9.66484C125.107 12.5135 125.122 15.3651 125.104 18.2138C125.086 21.1082 124.444 23.7032 121.473 25.0144C118.474 26.3378 114.223 25.6807 111.97 23.5351L111.967 23.5381ZM122.148 13.2623C122.237 11.025 120.803 9.45089 118.615 9.38059C116.439 9.31029 114.782 10.8416 114.73 12.9628C114.678 15.0534 116.176 16.6641 118.245 16.7497C120.525 16.8445 122.06 15.4721 122.148 13.2623Z" fill="#231F20"/>
<path d="M68.0473 19.3695C68.0473 16.9305 68.0687 14.6504 68.0412 12.3702C68.0168 10.3499 67.2802 9.41159 65.7794 9.37797C64.1992 9.34435 63.1081 10.4997 63.0622 12.41C63.0072 14.687 63.05 16.9672 63.05 19.3359H59.9599C59.9599 17.4012 59.9599 15.442 59.9599 13.4828C59.9599 12.9235 59.9936 12.3611 59.9446 11.8048C59.8407 10.6097 59.4556 9.59803 58.068 9.39936C56.7476 9.21292 55.3875 9.94036 55.146 11.2791C54.8709 12.8134 54.9076 14.4058 54.8526 15.9738C54.8129 17.0772 54.8465 18.1836 54.8465 19.3573H51.8848V7.00616H54.5867C54.6661 7.40655 54.7517 7.8314 54.8587 8.37545C57.5423 5.97613 60.1372 5.80802 62.4479 8.52216C63.3984 7.93532 64.2573 7.16509 65.2629 6.83499C68.2307 5.86304 70.8256 7.55326 71.009 10.6556C71.1802 13.5286 71.0457 16.42 71.0457 19.3665H68.0473V19.3695Z" fill="#231F20"/>
<path d="M76.8165 17.9298C76.7279 18.4647 76.6606 18.859 76.5842 19.3358H73.8945V0.621094H76.841V8.2653C80.7349 5.95767 83.721 6.17774 85.8086 8.8124C87.8809 11.4257 87.67 15.8025 85.3654 18.0704C83.1311 20.2711 79.8821 20.2588 76.8196 17.9329L76.8165 17.9298ZM84.1551 13.1434C84.1428 11.01 82.4771 9.34117 80.3926 9.37479C78.2775 9.41147 76.7432 11.0589 76.7798 13.2626C76.8135 15.3655 78.3753 16.9426 80.4384 16.9609C82.5107 16.9793 84.1704 15.2768 84.1581 13.1434H84.1551Z" fill="#231F20"/>
<path d="M43.0197 19.7242C39.0768 19.715 36.1793 16.8664 36.2251 13.0458C36.2679 9.33224 39.1869 6.60588 43.1052 6.62116C46.9655 6.63644 49.8631 9.47589 49.8203 13.2078C49.7775 16.9703 46.8952 19.7334 43.0227 19.7242H43.0197ZM46.718 13.1956C46.7516 11.0439 45.1347 9.36586 43.0227 9.36891C41.0085 9.36891 39.3427 11.0255 39.3122 13.055C39.2785 15.2129 40.8618 16.9153 42.9524 16.9673C45.04 17.0162 46.6813 15.3718 46.718 13.1987V13.1956Z" fill="#231F20"/>
<path d="M34.7197 13.0887C34.7319 16.9123 31.9597 19.6875 28.0902 19.7303C24.1321 19.7762 21.2162 16.9979 21.2071 13.1681C21.1979 9.39951 24.0343 6.63952 27.9343 6.62119C31.8649 6.60285 34.7105 9.31393 34.7197 13.0856V13.0887ZM31.6388 13.2048C31.654 11.0041 30.0952 9.37506 27.9741 9.38117C25.9385 9.38728 24.3094 10.995 24.2605 13.0489C24.2085 15.167 25.8345 16.9245 27.8946 16.9734C29.9852 17.0223 31.6235 15.3749 31.6418 13.2048H31.6388Z" fill="#231F20"/>
<path d="M91.8484 14.1914C92.7042 17.6452 95.3664 18.174 98.6857 15.6768C99.3092 16.1536 99.9694 16.658 100.63 17.1653C98.7835 19.7633 95.0974 20.4816 92.1143 18.8983C89.2259 17.3671 87.9606 13.9255 89.1312 10.7865C90.2529 7.77894 93.7587 5.99397 96.9771 6.79171C100.034 7.54971 101.62 10.2608 101.201 14.1944H91.8514L91.8484 14.1914ZM91.8667 11.9235H98.1814C97.9338 9.87262 97.0872 9.05654 95.3297 8.95568C93.4439 8.8487 92.4016 9.677 91.8667 11.9235Z" fill="#231F20"/>
<path d="M18.929 19.3852H16.0957V0.609375H18.929V19.3852Z" fill="#231F20"/>
<path d="M106.424 7.02985C106.47 7.46998 106.516 7.91622 106.58 8.55502C107.888 7.26519 109.239 6.24739 111.26 6.78227V9.61256C110.997 9.61256 110.755 9.62172 110.517 9.61256C107.788 9.48724 106.544 10.6334 106.516 13.3414C106.498 15.3098 106.513 17.2782 106.513 19.3352H103.561V7.02985H106.424Z" fill="#231F20"/>
</g>
<defs>
<clipPath id="clip0_1598_11140">
<rect width="125" height="42.0599" fill="white" transform="translate(0.111328 0.609375)"/>
</clipPath>
</defs>
</svg>
