<svg width="169" height="31" viewBox="0 0 169 31" fill="none" xmlns="http://www.w3.org/2000/svg">
<path d="M23.3331 0.753906H12.9998C12.8887 0.753906 12.8887 0.753906 12.8887 0.865017C12.8887 0.865017 12.8887 0.865017 12.8887 0.976129L18.1109 13.6428L23.4442 0.865017C23.4442 0.865017 23.4442 0.865017 23.3331 0.753906Z" fill="#333944"/>
<path d="M18.2229 17.0872L13.334 28.865C13.334 28.865 13.334 28.865 13.334 28.9761C13.334 28.9761 13.334 29.0872 13.4451 29.0872H23.0007C23.1118 29.0872 23.1118 29.0872 23.1118 28.9761C23.1118 28.9761 23.1118 28.9761 23.1118 28.865L18.2229 17.0872Z" fill="#333944"/>
<path d="M25 3.30859V28.6419C25 28.753 25.1111 28.8641 25.2222 28.8641H35.4444C35.5556 28.8641 35.5556 28.8641 35.5556 28.753C35.5556 28.753 35.5556 28.753 35.5556 28.6419L25 3.30859Z" fill="#333944"/>
<path d="M0.779297 28.8642L11.1126 28.9753C11.2237 28.9753 11.3349 28.8642 11.3349 28.753V3.30859L0.779297 28.8642Z" fill="#333944"/>
<path d="M36.0006 0.753906H25.4451C25.334 0.753906 25.334 0.753906 25.334 0.865017C25.334 0.865017 25.334 0.865017 25.334 0.976129L36.2229 27.3095V0.976129C36.1118 0.865017 36.0006 0.753906 36.0006 0.753906Z" fill="#333944"/>
<path d="M10.8891 0.753906H0.33355C0.222439 0.753906 0.111328 0.865017 0.111328 0.976129V27.3095L11.0002 0.865017C11.0002 0.865017 11.0002 0.865017 10.8891 0.753906C11.0002 0.753906 11.0002 0.753906 10.8891 0.753906Z" fill="#333944"/>
<path d="M18.8887 15.3108C18.8887 15.4219 18.8887 15.533 18.8887 15.533L23.6665 27.1997V3.42188L18.8887 15.0885C18.8887 15.1997 18.8887 15.1997 18.8887 15.3108Z" fill="#333944"/>
<path d="M12.5566 3.42188V27.3108L17.3344 15.6441C17.3344 15.533 17.3344 15.533 17.3344 15.4219C17.3344 15.3108 17.3344 15.1997 17.3344 15.1997L12.5566 3.42188Z" fill="#333944"/>
<path d="M162.777 5.97569V2.30903H164.666C165.999 2.30903 166.666 2.86458 166.666 4.08681C166.666 5.19792 165.888 5.86458 164.555 5.86458H162.777V5.97569ZM161.11 11.0868H162.777V7.42014H164.444H164.555L166.777 11.0868H168.777L166.333 7.08681C167.555 6.64236 168.444 5.64236 168.444 4.08681C168.444 3.19792 168.11 2.30903 167.555 1.86458C166.888 1.19792 165.999 0.864583 164.777 0.864583H160.999V11.0868H161.11ZM152.666 11.0868H159.222V9.53125H154.333V6.64236H158.555V5.08681H154.333V2.30903H159.11V0.753472H152.555V11.0868H152.666ZM146.777 11.0868H148.444V2.42014H151.11V0.753472H143.999V2.30903H146.666V11.0868H146.777ZM134.666 11.0868H136.333V3.97569L140.999 11.0868H142.444V0.753472H140.777V7.64236L136.222 0.753472H134.666V11.0868ZM126.333 11.0868H132.888V9.53125H127.999V6.64236H132.222V5.08681H127.999V2.30903H132.777V0.753472H126.222V11.0868H126.333ZM121.444 11.309C122.888 11.309 123.888 10.7535 124.777 9.86458L123.777 8.64236C123.11 9.30903 122.444 9.75347 121.444 9.75347C119.777 9.75347 118.555 8.30903 118.555 6.08681V5.86458C118.555 3.64236 119.777 2.19792 121.444 2.19792C122.333 2.19792 122.999 2.64236 123.666 3.19792L124.666 1.86458C123.777 1.08681 122.888 0.53125 121.444 0.53125C118.777 0.53125 116.777 2.64236 116.777 5.75347V5.86458C116.888 9.19792 118.777 11.309 121.444 11.309ZM108.333 11.1979C110.222 11.1979 111.666 10.0868 111.666 8.19792C111.666 6.64236 110.777 5.86458 108.888 5.19792C107.11 4.53125 106.777 4.08681 106.777 3.42014C106.777 2.75347 107.333 2.19792 108.333 2.19792C109.11 2.19792 109.888 2.64236 110.666 3.19792L111.666 1.86458C110.555 1.08681 109.444 0.642361 108.333 0.642361C106.444 0.642361 105.11 1.86458 105.11 3.53125C105.11 5.19792 106.11 5.86458 108.11 6.64236C109.666 7.30903 109.999 7.75347 109.999 8.42014C109.999 9.19792 109.333 9.75347 108.333 9.75347C107.222 9.75347 106.333 9.19792 105.666 8.53125L104.666 9.86458C105.777 10.7535 106.999 11.1979 108.333 11.1979ZM99.3327 11.309C101.666 11.309 103.222 9.97569 103.222 7.19792V0.753472H101.555V7.19792C101.555 8.86458 100.777 9.64236 99.4438 9.64236C98.1105 9.64236 97.3327 8.75347 97.3327 7.08681V0.753472H95.666V7.08681C95.5549 9.86458 97.1105 11.309 99.3327 11.309ZM89.666 11.0868H91.3327V2.42014H93.9994V0.753472H86.8882V2.30903H89.5549V11.0868H89.666ZM80.9994 7.19792L82.4438 3.08681L83.8882 7.19792H80.9994ZM77.8882 11.0868H79.666L80.5549 8.64236H84.5549L85.4438 11.0868H87.2216L83.4438 0.753472H81.7771L77.8882 11.0868ZM73.5549 11.309C74.9993 11.309 75.9993 10.7535 76.8882 9.86458L75.8882 8.64236C75.2216 9.30903 74.5549 9.75347 73.5549 9.75347C71.8882 9.75347 70.666 8.30903 70.666 6.08681V5.86458C70.666 3.64236 71.8882 2.19792 73.5549 2.19792C74.4438 2.19792 75.1105 2.64236 75.7771 3.19792L76.7771 1.86458C76.1105 1.19792 75.1105 0.642361 73.666 0.642361C70.9993 0.642361 68.9993 2.75347 68.9993 5.86458V5.97569C69.1105 9.19792 70.9993 11.309 73.5549 11.309ZM61.9994 5.97569V2.30903H63.8882C65.2216 2.30903 65.8882 2.86458 65.8882 4.08681C65.8882 5.19792 65.1105 5.86458 63.7771 5.86458H61.9994V5.97569ZM60.3327 11.0868H61.9994V7.42014H63.666H63.7771L65.9993 11.0868H67.9993L65.5549 7.08681C66.7771 6.64236 67.666 5.64236 67.666 4.08681C67.666 3.19792 67.3327 2.30903 66.7771 1.86458C66.1105 1.19792 65.2216 0.864583 63.9993 0.864583H60.2216V11.0868H60.3327ZM51.8882 11.0868H58.4438V9.53125H53.5549V6.64236H57.8882V5.08681H53.666V2.30903H58.4438V0.753472H51.8882V11.0868ZM40.666 11.0868H42.3327V3.86458L45.1105 8.64236L47.8882 3.86458V11.1979H49.5549V0.753472H47.7771L45.1105 5.53125L42.4438 0.753472H40.666V11.0868Z" fill="#333944"/>
<path d="M166.113 27.6419L164.224 22.5308H163.335L165.668 28.753C165.335 29.5308 165.113 29.8641 164.557 29.8641C164.224 29.8641 164.001 29.753 163.779 29.6419L163.557 30.3086C163.89 30.5308 164.335 30.6419 164.668 30.6419C165.446 30.6419 166.001 30.1975 166.446 28.9753L168.668 22.6419H167.779L166.113 27.6419ZM161.446 28.8641C161.779 28.8641 162.113 28.753 162.335 28.6419V27.8641C162.113 27.9753 161.89 28.0864 161.557 28.0864C161.001 28.0864 160.668 27.8641 160.668 27.1975V23.3086H162.335V22.5308H160.668V20.753H159.779V22.5308H159.001V23.3086H159.779V27.3086C159.89 28.4197 160.557 28.8641 161.446 28.8641ZM156.89 28.753H157.779V22.5308H156.89V28.753ZM156.89 21.3086H157.89V20.3086H156.89V21.3086ZM153.446 28.8641C154.557 28.8641 155.446 28.1975 155.446 27.0864C155.446 26.1975 154.779 25.753 153.668 25.3086C152.779 24.9753 152.335 24.6419 152.335 24.1975C152.335 23.753 152.779 23.3086 153.446 23.3086C154.001 23.3086 154.557 23.5308 155.001 23.8641L155.446 23.1975C154.89 22.753 154.224 22.5308 153.446 22.5308C152.335 22.5308 151.557 23.1975 151.557 24.1975C151.557 25.1975 152.335 25.5308 153.335 25.9753C154.113 26.3086 154.668 26.6419 154.668 27.1975C154.668 27.753 154.224 28.1975 153.557 28.1975C152.89 28.1975 152.335 27.9753 151.779 27.4197L151.335 28.0864C151.89 28.5308 152.779 28.8641 153.446 28.8641ZM147.557 28.753H148.446V25.753C148.446 24.1975 149.335 23.3086 150.557 23.3086V22.4197C149.557 22.4197 148.779 22.9753 148.446 23.8641V22.5308H147.557V28.753ZM141.89 25.3086C142.001 23.9753 142.668 23.1975 143.557 23.1975C144.557 23.1975 145.113 24.1975 145.224 25.3086H141.89ZM143.779 28.8641C144.668 28.8641 145.335 28.5308 145.89 27.9753L145.446 27.4197C145.001 27.8641 144.557 28.0864 143.89 28.0864C142.89 28.0864 142.113 27.3086 142.001 25.9753H146.113C146.113 25.8641 146.113 25.753 146.113 25.6419C146.113 23.753 145.224 22.4197 143.668 22.4197C142.224 22.4197 141.113 23.753 141.113 25.6419V25.753C141.001 27.6419 142.224 28.8641 143.779 28.8641ZM137.224 28.753H138.001L140.224 22.5308H139.335L137.557 27.6419L135.779 22.5308H134.89L137.224 28.753ZM132.779 28.753H133.668V22.5308H132.779V28.753ZM132.779 21.3086H133.779V20.3086H132.779V21.3086ZM126.335 28.753H127.224V24.9753C127.224 23.8641 127.89 23.1975 128.779 23.1975C129.668 23.1975 130.224 23.8641 130.224 24.9753V28.753H131.113V24.753C131.113 23.3086 130.335 22.5308 129.113 22.5308C128.224 22.5308 127.668 23.0864 127.335 23.6419V22.6419H126.446V28.753H126.335ZM121.446 28.8641C123.224 28.8641 124.446 27.753 124.446 25.5308V20.3086H123.557V25.5308C123.557 27.0864 122.779 27.9753 121.446 27.9753C120.113 27.9753 119.335 27.0864 119.335 25.5308V20.3086H118.446V25.5308C118.446 27.753 119.668 28.8641 121.446 28.8641ZM109.001 28.753H109.89V24.9753C109.89 23.8641 110.557 23.1975 111.446 23.1975C112.335 23.1975 112.89 23.8641 112.89 24.9753V28.753H113.779V24.753C113.779 23.3086 113.001 22.5308 111.779 22.5308C110.89 22.5308 110.335 23.0864 110.001 23.6419V22.6419H109.001V28.753ZM104.779 28.0864C103.668 28.0864 102.89 27.0864 102.89 25.6419V25.5308C102.89 24.1975 103.668 23.0864 104.779 23.0864C105.89 23.0864 106.668 24.0864 106.668 25.5308V25.6419C106.668 27.0864 105.89 28.0864 104.779 28.0864ZM104.779 28.8641C106.335 28.8641 107.557 27.4197 107.557 25.6419V25.5308C107.557 23.753 106.446 22.3086 104.779 22.3086C103.113 22.3086 102.001 23.6419 102.001 25.5308V25.6419C102.001 27.5308 103.113 28.8641 104.779 28.8641ZM98.8904 28.8641C100.001 28.8641 100.89 28.1975 100.89 27.0864C100.89 26.1975 100.224 25.753 99.1126 25.3086C98.2237 24.9753 97.7792 24.6419 97.7792 24.1975C97.7792 23.753 98.2237 23.3086 98.8904 23.3086C99.4459 23.3086 100.001 23.5308 100.446 23.8641L100.89 23.1975C100.335 22.753 99.6681 22.5308 98.8904 22.5308C97.7792 22.5308 97.0015 23.1975 97.0015 24.1975C97.0015 25.1975 97.7792 25.5308 98.7792 25.9753C99.557 26.3086 100.113 26.6419 100.113 27.1975C100.113 27.753 99.6681 28.1975 99.0015 28.1975C98.3348 28.1975 97.7792 27.9753 97.2237 27.4197L96.7792 28.0864C97.3348 28.5308 98.1126 28.8641 98.8904 28.8641ZM92.8904 28.1975C92.1126 28.1975 91.557 27.753 91.557 26.9753C91.557 26.1975 92.1126 25.6419 93.1126 25.6419C93.6681 25.6419 94.2237 25.753 94.557 25.8641V26.6419C94.6681 27.5308 93.8904 28.1975 92.8904 28.1975ZM92.7792 28.8641C93.6681 28.8641 94.3348 28.4197 94.6681 27.8641V28.753H95.557V24.753C95.557 23.9753 95.3348 23.4197 95.0015 23.0864C94.557 22.6419 94.0015 22.4197 93.2237 22.4197C92.4459 22.4197 91.8904 22.6419 91.2237 22.8641L91.4459 23.5308C91.8904 23.3086 92.4459 23.0864 93.0015 23.0864C94.0015 23.0864 94.557 23.6419 94.557 24.6419V24.9753C94.1126 24.8641 93.6681 24.753 93.0015 24.753C91.6681 24.753 90.6681 25.5308 90.6681 26.753C90.7792 28.1975 91.6681 28.8641 92.7792 28.8641ZM82.2237 28.753H83.1126V22.0864L85.6681 26.5308L88.2237 22.0864V28.753H89.1126V20.4197H88.2237L85.6681 24.8641L83.1126 20.4197H82.2237V28.753ZM73.4459 25.3086C73.557 23.9753 74.2237 23.1975 75.1126 23.1975C76.1126 23.1975 76.6681 24.1975 76.7792 25.3086H73.4459ZM75.3348 28.8641C76.2237 28.8641 76.8904 28.5308 77.4459 27.9753L77.0015 27.4197C76.557 27.8641 76.1126 28.0864 75.4459 28.0864C74.4459 28.0864 73.6681 27.3086 73.557 25.9753H77.6681C77.6681 25.8641 77.6681 25.753 77.6681 25.6419C77.6681 23.753 76.7792 22.4197 75.2237 22.4197C73.7792 22.4197 72.6681 23.753 72.6681 25.6419V25.753C72.6681 27.6419 73.8904 28.8641 75.3348 28.8641ZM68.4459 27.5308C67.4459 27.5308 66.6681 26.753 66.6681 25.4197C66.6681 24.0864 67.4459 23.3086 68.4459 23.3086C69.4459 23.3086 70.3348 24.0864 70.3348 25.4197C70.3348 26.753 69.3348 27.5308 68.4459 27.5308ZM68.3348 30.5308C69.2237 30.5308 69.8904 30.3086 70.4459 29.8641C70.8904 29.4197 71.1126 28.753 71.1126 27.9753V22.6419H70.2237V23.753C69.7792 23.0864 69.2237 22.5308 68.2237 22.5308C67.0015 22.5308 65.7792 23.6419 65.7792 25.4197C65.7792 27.3086 67.0015 28.3086 68.2237 28.3086C69.2237 28.3086 69.8904 27.753 70.2237 27.0864V27.9753C70.2237 29.1975 69.4459 29.8641 68.3348 29.8641C67.6681 29.8641 66.8904 29.6419 66.3348 29.3086L66.0015 29.9753C66.7792 30.3086 67.557 30.5308 68.3348 30.5308ZM62.0015 28.753H62.8904V25.753C62.8904 24.1975 63.7792 23.3086 65.0015 23.3086V22.4197C64.0015 22.4197 63.2237 22.9753 62.8904 23.8641V22.5308H62.0015V28.753ZM57.7792 28.0864C56.6681 28.0864 55.8904 27.0864 55.8904 25.6419V25.5308C55.8904 24.1975 56.6681 23.0864 57.7792 23.0864C58.8904 23.0864 59.6681 24.0864 59.6681 25.5308V25.6419C59.557 27.0864 58.7792 28.0864 57.7792 28.0864ZM57.6681 28.8641C59.2237 28.8641 60.4459 27.4197 60.4459 25.6419V25.5308C60.4459 23.753 59.3348 22.3086 57.6681 22.3086C56.1126 22.3086 54.8904 23.6419 54.8904 25.5308V25.6419C55.0015 27.5308 56.1126 28.8641 57.6681 28.8641ZM49.6681 25.3086C49.7792 23.9753 50.4459 23.1975 51.3348 23.1975C52.3348 23.1975 52.8904 24.1975 53.0015 25.3086H49.6681ZM51.557 28.8641C52.4459 28.8641 53.1126 28.5308 53.6681 27.9753L53.2237 27.4197C52.7792 27.8641 52.3348 28.0864 51.6681 28.0864C50.6681 28.0864 49.8904 27.3086 49.7792 25.9753H53.8904C53.8904 25.8641 53.8904 25.753 53.8904 25.6419C53.8904 23.753 53.0015 22.4197 51.4459 22.4197C50.0015 22.4197 48.8904 23.753 48.8904 25.6419V25.753C48.7792 27.6419 50.0015 28.8641 51.557 28.8641ZM44.557 28.8641C45.6681 28.8641 46.557 28.4197 47.2237 27.8641V24.3086H44.3348V25.0864H46.4459V27.4197C46.0015 27.753 45.3348 27.9753 44.6681 27.9753C43.0015 27.9753 41.7792 26.6419 41.7792 24.5308V24.4197C41.7792 22.4197 43.0015 20.9753 44.557 20.9753C45.4459 20.9753 46.0015 21.3086 46.557 21.753L47.1126 21.0864C46.3348 20.6419 45.6681 20.3086 44.557 20.3086C42.3348 20.3086 40.8904 22.0864 40.8904 24.5308V24.6419C40.7792 27.0864 42.3348 28.8641 44.557 28.8641Z" fill="#333944"/>
<path d="M164.779 30.6437C164.335 30.6437 164.002 30.5326 163.668 30.3103H163.557L163.89 29.4214H164.002C164.224 29.5326 164.557 29.6437 164.779 29.6437C165.113 29.6437 165.446 29.5326 165.779 28.6437L163.335 22.4214H164.446L166.224 27.3103L167.779 22.4214H168.89V22.5326L166.668 28.8659C166.224 30.0881 165.668 30.6437 164.779 30.6437ZM163.668 30.1992C164.002 30.3103 164.335 30.4214 164.668 30.4214C165.557 30.4214 166.002 29.977 166.446 28.7548L168.557 22.5326H167.89L166.224 27.7548L164.335 22.5326H163.446L165.779 28.6437C165.446 29.4214 165.113 29.7548 164.668 29.7548C164.446 29.7548 164.113 29.6437 163.89 29.5326L163.668 30.1992ZM68.3349 30.6437C67.446 30.6437 66.6682 30.4214 65.8904 29.977H65.7793L66.2237 29.1992H66.3349C66.8904 29.5326 67.6682 29.7548 68.3349 29.7548C69.5571 29.7548 70.1126 29.0881 70.1126 27.977V27.3103C69.5571 28.0881 68.8904 28.4214 68.1126 28.4214C67.0015 28.4214 65.6682 27.3103 65.6682 25.4214C65.6682 23.4214 66.8904 22.4214 68.2237 22.4214C69.0015 22.4214 69.6682 22.7548 70.2237 23.4214V22.5326H71.2237V27.977C71.2237 28.8659 71.0015 29.5326 70.5571 29.977C70.0015 30.4214 69.3349 30.6437 68.3349 30.6437ZM66.1126 29.8659C66.7793 30.3103 67.5571 30.5326 68.3349 30.5326C69.2237 30.5326 69.8904 30.3103 70.3349 29.8659C70.7793 29.4214 71.0015 28.7548 71.0015 27.977V22.6437H70.3349V23.977L70.2237 23.7548C69.6682 22.977 69.1126 22.5326 68.2237 22.5326C67.0015 22.5326 65.8904 23.5326 65.8904 25.4214C65.8904 27.3103 67.1126 28.1992 68.2237 28.1992C69.0015 28.1992 69.6682 27.7548 70.2237 26.977L70.3349 26.7548V27.977C70.3349 29.1992 69.6682 29.8659 68.3349 29.8659C67.6682 29.8659 67.0015 29.6437 66.3349 29.3103L66.1126 29.8659ZM143.779 28.977C142.113 28.977 141.002 27.6437 141.002 25.7548V25.6437C141.002 23.7548 142.113 22.3103 143.668 22.3103C145.224 22.3103 146.224 23.6437 146.224 25.5326C146.224 25.6437 146.224 25.7548 146.224 25.8659V25.977H142.113C142.224 27.1992 143.002 27.977 143.89 27.977C144.446 27.977 145.002 27.7548 145.446 27.3103L145.557 27.1992L146.113 27.8659C145.335 28.6437 144.668 28.977 143.779 28.977ZM143.557 22.5326C142.113 22.5326 141.113 23.8659 141.113 25.6437V25.7548C141.113 27.5326 142.224 28.8659 143.779 28.8659C144.557 28.8659 145.224 28.6437 145.779 27.977L145.446 27.5326C145.002 27.977 144.446 28.1992 143.89 28.1992C142.779 28.1992 142.002 27.3103 141.89 25.977V25.8659H146.113C146.113 25.7548 146.113 25.6437 146.113 25.6437C146.002 23.7548 145.002 22.5326 143.557 22.5326ZM121.446 28.977C119.557 28.977 118.446 27.7548 118.446 25.6437V20.3103H119.446V25.5326C119.446 26.977 120.224 27.8659 121.446 27.8659C122.668 27.8659 123.446 26.977 123.446 25.5326V20.1992H124.446V25.4214C124.557 27.6437 123.335 28.977 121.446 28.977ZM118.557 20.5326V25.6437C118.557 27.6437 119.668 28.7548 121.446 28.7548C123.224 28.7548 124.335 27.5326 124.335 25.5326V20.4214H123.557V25.5326C123.557 27.0881 122.779 27.977 121.446 27.977C120.113 27.977 119.224 27.0881 119.224 25.4214V20.3103H118.557V20.5326ZM104.779 28.977C103.224 28.977 102.002 27.5326 102.002 25.7548V25.6437C102.002 23.7548 103.224 22.4214 104.89 22.4214C106.446 22.4214 107.668 23.8659 107.668 25.6437V25.7548C107.557 27.5326 106.335 28.977 104.779 28.977ZM104.779 22.5326C103.224 22.5326 102.113 23.8659 102.113 25.6437V25.7548C102.113 27.5326 103.224 28.8659 104.779 28.8659C106.335 28.8659 107.446 27.5326 107.446 25.7548V25.6437C107.446 23.7548 106.335 22.5326 104.779 22.5326ZM92.7793 28.977C91.7793 28.977 90.6682 28.3103 90.6682 26.977C90.6682 25.6437 91.5571 24.8659 93.0015 24.8659C93.6682 24.8659 94.1126 24.977 94.5571 25.0881V24.8659C94.5571 23.977 94.0015 23.4214 93.0015 23.4214C92.446 23.4214 92.0015 23.5326 91.446 23.8659H91.3349L91.0015 22.977H91.1126C91.6682 22.7548 92.2237 22.4214 93.1126 22.4214C93.8904 22.4214 94.446 22.6437 94.8904 23.0881C95.3349 23.5326 95.5571 24.0881 95.5571 24.8659V28.977H94.5571V28.1992C94.2237 28.5325 93.6682 28.977 92.7793 28.977ZM93.0015 24.977C91.6682 24.977 90.7793 25.7548 90.7793 26.8659C90.7793 28.0881 91.7793 28.7548 92.6682 28.7548C93.6682 28.7548 94.2237 28.1992 94.446 27.7548L94.5571 27.5326V28.6437H95.2237V24.7548C95.2237 24.0881 95.0015 23.5326 94.6682 23.0881C94.2237 22.6437 93.6682 22.5326 93.0015 22.5326C92.2237 22.5326 91.6682 22.7548 91.1126 22.977L91.3349 23.5326C91.8904 23.3103 92.3349 23.1992 92.8904 23.1992C93.8904 23.1992 94.5571 23.7548 94.5571 24.8659V25.3103H94.446C94.2237 25.0881 93.6682 24.977 93.0015 24.977ZM75.3349 28.977C73.6682 28.977 72.5571 27.6437 72.5571 25.7548V25.6437C72.5571 23.7548 73.6682 22.3103 75.2237 22.3103C76.7793 22.3103 77.7793 23.6437 77.7793 25.5326C77.7793 25.6437 77.7793 25.7548 77.7793 25.8659V25.977H73.6682C73.7793 27.1992 74.5571 27.977 75.446 27.977C76.0015 27.977 76.5571 27.7548 77.0015 27.3103L77.1126 27.1992L77.6682 27.8659C76.8904 28.6437 76.2237 28.977 75.3349 28.977ZM75.2237 22.5326C73.7793 22.5326 72.7793 23.8659 72.7793 25.6437V25.7548C72.7793 27.5326 73.8904 28.8659 75.446 28.8659C76.2237 28.8659 76.8904 28.6437 77.446 27.977L77.1126 27.5326C76.6682 27.977 76.1126 28.1992 75.5571 28.1992C74.446 28.1992 73.6682 27.3103 73.5571 25.977V25.8659H77.7793C77.7793 25.7548 77.7793 25.6437 77.7793 25.6437C77.5571 23.7548 76.6682 22.5326 75.2237 22.5326ZM57.6682 28.977C56.1126 28.977 54.8904 27.5326 54.8904 25.7548V25.6437C54.8904 23.7548 56.1126 22.4214 57.7793 22.4214C59.3349 22.4214 60.5571 23.8659 60.5571 25.6437V25.7548C60.5571 27.5326 59.3349 28.977 57.6682 28.977ZM57.7793 22.5326C56.2237 22.5326 55.1126 23.8659 55.1126 25.6437V25.7548C55.1126 27.5326 56.2237 28.8659 57.7793 28.8659C59.3349 28.8659 60.446 27.5326 60.446 25.7548V25.6437C60.446 23.7548 59.2237 22.5326 57.7793 22.5326ZM51.5571 28.977C49.8904 28.977 48.7793 27.6437 48.7793 25.7548V25.6437C48.7793 23.7548 49.8904 22.3103 51.446 22.3103C53.0015 22.3103 54.0015 23.6437 54.0015 25.5326C54.0015 25.6437 54.0015 25.7548 54.0015 25.8659V25.977H49.8904C50.0015 27.1992 50.7793 27.977 51.6682 27.977C52.2237 27.977 52.7793 27.7548 53.2237 27.3103L53.3349 27.1992L53.8904 27.8659C53.1126 28.6437 52.3349 28.977 51.5571 28.977ZM51.3349 22.5326C49.8904 22.5326 48.8904 23.8659 48.8904 25.6437V25.7548C48.8904 27.5326 50.0015 28.8659 51.5571 28.8659C52.3349 28.8659 53.0015 28.6437 53.5571 27.977L53.2237 27.5326C52.7793 27.977 52.2237 28.1992 51.6682 28.1992C50.5571 28.1992 49.7793 27.3103 49.6682 25.977V25.8659H53.8904C53.8904 25.7548 53.8904 25.6437 53.8904 25.6437C53.7793 23.7548 52.7793 22.5326 51.3349 22.5326ZM44.5571 28.977C42.2237 28.977 40.7793 27.1992 40.7793 24.6437V24.5326C40.7793 21.977 42.3349 20.1992 44.5571 20.1992C45.5571 20.1992 46.3349 20.4214 47.1126 21.0881H47.2237L46.5571 21.977L46.446 21.8659C45.8904 21.3103 45.2237 21.0881 44.446 21.0881C42.8904 21.0881 41.7793 22.5326 41.7793 24.4214V24.5326C41.7793 26.5326 42.8904 27.8659 44.5571 27.8659C45.2237 27.8659 45.7793 27.6437 46.2237 27.3103V25.0881H44.1126V24.0881H47.2237V27.7548C46.8904 28.3103 45.8904 28.977 44.5571 28.977ZM44.5571 20.4214C42.446 20.4214 40.8904 22.1992 40.8904 24.5326V24.6437C40.8904 27.0881 42.3349 28.7548 44.5571 28.7548C45.7793 28.7548 46.6682 28.1992 47.1126 27.8659V24.4214H44.3349V25.0881H46.446V27.5326C46.0015 27.8659 45.2237 28.1992 44.5571 28.1992C42.7793 28.1992 41.6682 26.8659 41.6682 24.6437V24.5326C41.6682 22.5326 42.8904 21.0881 44.5571 21.0881C45.3349 21.0881 46.0015 21.3103 46.5571 21.8659L47.0015 21.3103C46.2237 20.6437 45.5571 20.4214 44.5571 20.4214ZM153.446 28.8659C152.668 28.8659 151.779 28.5326 151.113 27.977L151.668 27.1992H151.779C152.335 27.6437 153.002 27.977 153.557 27.977C154.224 27.977 154.668 27.6437 154.668 27.0881C154.668 26.6437 154.224 26.3103 153.335 25.977C152.335 25.5326 151.557 25.0881 151.557 24.0881C151.557 23.0881 152.335 22.3103 153.557 22.3103C154.224 22.3103 155.002 22.5326 155.557 22.977H155.668L155.113 23.7548H155.002C154.446 23.4214 154.002 23.1992 153.446 23.1992C152.89 23.1992 152.446 23.5326 152.446 23.977C152.446 24.4214 153.002 24.6437 153.779 25.0881C154.779 25.5326 155.557 25.977 155.557 26.977C155.557 28.1992 154.668 28.8659 153.446 28.8659ZM151.335 27.977C151.89 28.5326 152.668 28.7548 153.446 28.7548C154.557 28.7548 155.335 28.0881 155.335 27.0881C155.335 26.1992 154.779 25.8659 153.668 25.3103C152.779 24.977 152.224 24.6437 152.224 24.0881C152.224 23.5326 152.668 23.0881 153.335 23.0881C153.779 23.0881 154.335 23.3103 154.89 23.6437L155.224 23.0881C154.668 22.7548 154.002 22.5326 153.335 22.5326C152.224 22.5326 151.446 23.1992 151.446 24.0881C151.446 24.977 152.113 25.3103 153.113 25.7548C153.89 26.0881 154.557 26.4214 154.557 26.977C154.557 27.6437 154.113 27.977 153.335 27.977C152.779 27.977 152.113 27.7548 151.557 27.3103L151.335 27.977ZM98.8904 28.8659C98.1126 28.8659 97.2237 28.5326 96.5571 27.977L97.1126 27.1992H97.2237C97.7793 27.6437 98.446 27.977 99.0015 27.977C99.6682 27.977 100.113 27.6437 100.113 27.0881C100.113 26.6437 99.6682 26.3103 98.7793 25.977C97.7793 25.5326 97.0015 25.0881 97.0015 24.0881C97.0015 23.0881 97.7793 22.3103 99.0015 22.3103C99.6682 22.3103 100.446 22.5326 101.002 22.977H101.113L100.557 23.7548H100.446C99.8904 23.4214 99.446 23.1992 98.8904 23.1992C98.3349 23.1992 97.8904 23.5326 97.8904 23.977C97.8904 24.4214 98.446 24.6437 99.2237 25.0881C100.224 25.5326 101.002 25.977 101.002 26.977C101.002 28.1992 100.113 28.8659 98.8904 28.8659ZM96.7793 27.977C97.3349 28.5326 98.1126 28.7548 98.8904 28.7548C100.002 28.7548 100.779 28.0881 100.779 27.0881C100.779 26.1992 100.224 25.8659 99.1126 25.3103C98.2237 24.977 97.6682 24.6437 97.6682 24.0881C97.6682 23.5326 98.1126 23.0881 98.7793 23.0881C99.2237 23.0881 99.7793 23.3103 100.335 23.6437L100.668 23.0881C100.113 22.7548 99.446 22.5326 98.7793 22.5326C97.6682 22.5326 96.8904 23.1992 96.8904 24.0881C96.8904 24.977 97.5571 25.3103 98.6682 25.7548C99.446 26.0881 100.113 26.4214 100.113 26.977C100.113 27.6437 99.6682 27.977 98.8904 27.977C98.3349 27.977 97.6682 27.7548 97.1126 27.3103L96.7793 27.977ZM161.446 28.8659C160.446 28.8659 159.779 28.3103 159.779 27.3103V23.4214H159.002V22.5326H159.779V20.6437H160.779V22.4214H162.446V23.3103H160.779V27.0881C160.779 27.6437 161.002 27.8659 161.557 27.8659C161.779 27.8659 162.002 27.8659 162.224 27.7548H162.335V28.6437C162.002 28.8659 161.779 28.8659 161.446 28.8659ZM159.224 23.1992H160.002V27.3103C160.002 28.5326 160.779 28.7548 161.446 28.7548C161.779 28.7548 162.002 28.6437 162.335 28.5326V27.977C162.113 28.0881 161.89 28.0881 161.668 28.0881C161.002 28.0881 160.668 27.7548 160.668 27.0881V23.1992H162.335V22.6437H160.668V20.8659H160.002V22.6437H159.224V23.1992ZM138.113 28.8659H137.224L134.89 22.5326H136.002L137.668 27.4214L139.335 22.5326H140.446V22.6437L138.113 28.8659ZM137.335 28.7548H138.002L140.224 22.6437H139.446L137.668 27.8659L137.557 27.6437L135.89 22.6437H135.113L137.335 28.7548ZM157.89 28.8659H156.89V22.5326H157.89V28.8659ZM157.002 28.6437H157.668V22.6437H157.002V28.6437ZM148.446 28.8659H147.446V22.5326H148.446V23.6437C148.89 22.8659 149.557 22.4214 150.446 22.4214H150.557H150.668V23.5326H150.557C149.335 23.5326 148.557 24.4214 148.557 25.8659V28.8659H148.446ZM147.557 28.6437H148.224V25.7548C148.224 24.3103 149.113 23.3103 150.335 23.3103V22.5326C149.446 22.5326 148.779 23.0881 148.335 23.977L148.224 24.3103V22.6437H147.557V28.6437ZM133.779 28.8659H132.779V22.5326H133.779V28.8659ZM132.89 28.6437H133.557V22.6437H132.89V28.6437ZM131.113 28.8659H130.113V24.977C130.113 23.8659 129.668 23.3103 128.779 23.3103C127.89 23.3103 127.335 23.977 127.335 24.977V28.8659H126.335V22.5326H127.335V23.3103C127.779 22.6437 128.335 22.4214 129.113 22.4214C130.446 22.4214 131.224 23.3103 131.224 24.7548V28.8659H131.113ZM130.224 28.6437H130.89V24.6437C130.89 23.3103 130.113 22.4214 129.002 22.4214C128.224 22.4214 127.668 22.7548 127.224 23.5326L127.113 23.7548V22.5326H126.446V28.5326H127.113V24.8659C127.113 23.7548 127.779 22.977 128.779 22.977C129.779 22.977 130.335 23.6437 130.335 24.7548V28.6437H130.224ZM113.779 28.8659H112.779V24.977C112.779 23.8659 112.335 23.3103 111.446 23.3103C110.557 23.3103 110.002 23.977 110.002 24.977V28.8659H109.002V22.5326H110.002V23.3103C110.446 22.6437 111.002 22.4214 111.779 22.4214C113.113 22.4214 113.89 23.3103 113.89 24.7548V28.8659H113.779ZM112.89 28.6437H113.557V24.6437C113.557 23.3103 112.779 22.4214 111.668 22.4214C110.89 22.4214 110.335 22.7548 109.89 23.5326L109.779 23.7548V22.5326H109.113V28.5326H109.779V24.8659C109.779 23.7548 110.446 22.977 111.446 22.977C112.446 22.977 113.002 23.6437 113.002 24.7548V28.6437H112.89ZM89.2237 28.8659H88.2237V22.4214L85.7793 26.6437H85.6682L83.2237 22.4214V28.8659H82.2237V20.4214H83.2237L85.6682 24.7548L88.1126 20.4214H89.1126V28.8659H89.2237ZM88.3349 28.6437H89.1126V20.5326H88.3349L85.6682 24.977V24.8659L83.1126 20.4214H82.3349V28.5326H83.0015V21.7548L85.6682 26.3103L88.3349 21.7548V28.6437ZM62.8904 28.8659H61.8904V22.5326H62.8904V23.6437C63.3349 22.8659 64.1126 22.4214 64.8904 22.4214H65.0015V23.5326H64.8904C63.6682 23.5326 62.8904 24.4214 62.8904 25.8659V28.8659ZM62.0015 28.6437H62.6682V25.7548C62.6682 24.3103 63.5571 23.3103 64.7793 23.3103V22.5326C63.8904 22.5326 63.2237 23.0881 62.7793 23.977L62.6682 24.3103V22.6437H62.0015V28.6437ZM92.8904 28.1992C92.1126 28.1992 91.446 27.6437 91.446 26.8659C91.446 25.977 92.1126 25.5326 93.1126 25.5326C93.6682 25.5326 94.2237 25.6437 94.6682 25.7548V26.5326C94.6682 26.977 94.446 27.4214 94.2237 27.6437C93.8904 28.0881 93.446 28.1992 92.8904 28.1992ZM93.1126 25.6437C92.2237 25.6437 91.6682 26.0881 91.6682 26.8659C91.6682 27.5326 92.2237 28.0881 92.8904 28.0881C93.3349 28.0881 93.7793 27.977 94.1126 27.6437C94.3349 27.4214 94.5571 26.977 94.5571 26.6437V25.977C94.1126 25.7548 93.6682 25.6437 93.1126 25.6437ZM104.779 28.1992C103.668 28.1992 102.779 27.0881 102.779 25.6437V25.5326C102.779 24.0881 103.557 23.0881 104.779 23.0881C105.89 23.0881 106.779 24.1992 106.779 25.6437V25.7548C106.668 27.0881 105.89 28.1992 104.779 28.1992ZM104.779 23.3103C103.779 23.3103 103.002 24.3103 103.002 25.6437V25.7548C103.002 27.0881 103.779 28.0881 104.779 28.0881C105.779 28.0881 106.557 27.0881 106.557 25.7548V25.6437C106.557 24.3103 105.779 23.3103 104.779 23.3103ZM57.7793 28.1992C56.6682 28.1992 55.7793 27.0881 55.7793 25.6437V25.5326C55.7793 24.0881 56.5571 23.0881 57.7793 23.0881C58.8904 23.0881 59.7793 24.1992 59.7793 25.6437V25.7548C59.6682 27.0881 58.8904 28.1992 57.7793 28.1992ZM57.6682 23.3103C56.6682 23.3103 55.8904 24.3103 55.8904 25.6437V25.7548C55.8904 27.0881 56.6682 28.0881 57.6682 28.0881C58.6682 28.0881 59.446 27.0881 59.446 25.7548V25.6437C59.5571 24.3103 58.7793 23.3103 57.6682 23.3103ZM68.446 27.6437C67.3349 27.6437 66.5571 26.7548 66.5571 25.4214C66.5571 24.0881 67.3349 23.1992 68.446 23.1992C69.446 23.1992 70.446 24.0881 70.446 25.4214C70.3349 26.7548 69.3349 27.6437 68.446 27.6437ZM68.446 23.3103C67.446 23.3103 66.7793 24.0881 66.7793 25.4214C66.7793 26.6437 67.446 27.5326 68.446 27.5326C69.3349 27.5326 70.2237 26.7548 70.2237 25.4214C70.2237 23.977 69.3349 23.3103 68.446 23.3103ZM145.335 25.4214H141.89V25.3103C142.002 23.977 142.668 23.0881 143.668 23.0881C144.557 23.0881 145.224 23.977 145.335 25.4214ZM142.002 25.1992H145.113C145.002 24.3103 144.557 23.1992 143.557 23.1992C142.668 23.1992 142.113 24.0881 142.002 25.1992ZM76.8904 25.4214H73.446V25.3103C73.5571 23.977 74.2237 23.0881 75.2237 23.0881C76.1126 23.0881 76.7793 23.977 76.8904 25.4214ZM73.5571 25.1992H76.7793C76.6682 24.3103 76.2237 23.1992 75.2237 23.1992C74.3349 23.1992 73.6682 24.0881 73.5571 25.1992ZM53.0015 25.4214H49.5571V25.3103C49.6682 23.977 50.3349 23.0881 51.3349 23.0881C52.3349 23.0881 53.0015 23.977 53.0015 25.4214ZM49.7793 25.1992H52.8904C52.7793 24.3103 52.3349 23.1992 51.3349 23.1992C50.446 23.1992 49.7793 24.0881 49.7793 25.1992ZM157.89 21.3103H156.779V20.1992H157.89V21.3103ZM157.002 21.1992H157.779V20.3103H157.002V21.1992ZM133.779 21.3103H132.668V20.1992H133.779V21.3103ZM132.89 21.1992H133.668V20.3103H132.89V21.1992Z" fill="#333944"/>
<path d="M168.666 15.0859H40.666V16.0859H168.666V15.0859Z" fill="#333944"/>
</svg>
