<svg width="144" height="73" viewBox="0 0 144 73" fill="none" xmlns="http://www.w3.org/2000/svg">
<path d="M47.1276 69.4246C44.0645 69.4246 42.0998 67.0688 42.0998 63.5591C42.0998 60.0245 44.0645 57.6936 47.1276 57.6936C50.2176 57.6936 52.1823 60.0494 52.1823 63.5591C52.1823 67.0688 50.2176 69.4246 47.1276 69.4246ZM47.1276 56.647C43.2786 56.647 40.7925 59.4494 40.7925 63.5591C40.7925 67.6439 43.2786 70.4731 47.1027 70.4731C50.9498 70.4731 53.4647 67.6439 53.4647 63.5591C53.4647 59.4494 50.9498 56.647 47.1276 56.647ZM37.0719 52.9801L40.9209 52.6926V51.8798H31.8083V52.6926L35.6841 52.9552V60.0245H25.4712V52.9552L29.349 52.6926V51.8798H20.2363V52.6926L24.0566 52.9801V68.8745L20.2363 69.1371V69.9498H29.349V69.1371L25.4712 68.8745V61.073H35.6841V68.8745L31.8083 69.1371V69.9498H40.9209V69.1371L37.0719 68.8745V52.9801ZM25.4463 3.98768H31.2581C33.8248 3.98768 35.3966 5.63807 35.3966 8.09929C35.3966 10.5873 34.0356 12.4716 31.4709 12.4716H25.4463V3.98768ZM29.5042 20.1964L25.4463 19.9338V13.5182H31.6511C34.9001 13.5182 36.7844 11.2161 36.7844 8.12613C36.7844 5.08794 34.7928 2.93917 31.5227 2.93917H20.2363V3.74999L24.0317 4.03943V19.9338L20.2363 20.1964V21.0092H29.5042V20.1964ZM53.5452 44.707V45.4642H60.9538V44.7319L57.9692 44.4693V36.457C59.0427 34.6513 60.9269 33.3153 62.9971 33.3153C65.0635 33.3153 66.2155 34.6513 66.2155 36.7464V44.4693L63.1792 44.7319V45.4642H70.3271V44.707L67.5266 44.4444V36.6161C67.5266 34.2315 66.3727 32.1882 63.2578 32.1882C61.0343 32.1882 59.081 33.4399 57.9424 35.1478V32.3473L57.2083 32.1383C56.1348 33.3153 54.7221 33.8405 53.02 33.8405V34.3906C54.2755 34.6245 55.6115 34.5995 56.66 34.0743V44.4444L53.5452 44.707ZM25.4463 28.4714H31.5476C34.1391 28.4714 35.7895 30.0413 35.7895 32.4508C35.7895 34.8602 34.4017 36.5892 31.5993 36.5892H25.4463V28.4714ZM29.5042 44.6514L25.4463 44.3927V37.6607H30.8383L34.6644 45.4642H39.4545V44.6514L35.5538 44.2604L32.3066 37.6607C35.3717 37.5036 37.1773 35.3049 37.1773 32.4508C37.1773 29.518 35.134 27.4248 31.9923 27.4248H20.2363V28.2357L24.0566 28.5232V44.3927L20.2363 44.6514V45.4642H29.5042V44.6514ZM120.186 19.9856V12.1591C120.186 9.77461 119.034 7.70634 115.919 7.70634C113.718 7.70634 111.765 8.95995 110.627 10.6909V7.86352L109.896 7.65458C108.821 8.83152 107.408 9.38165 105.702 9.35482V9.93179C106.962 10.1676 108.298 10.1407 109.344 9.61742V19.9856L106.229 20.2501V21.0092H113.638V20.275L110.655 20.0124V12.0001C111.727 10.1925 113.613 8.83152 115.655 8.83152C117.725 8.83152 118.875 10.1925 118.875 12.2895V20.0124L115.839 20.275V21.0092H122.986V20.2501L120.186 19.9856ZM77.1376 62.8537C75.4335 62.4339 73.2886 61.857 73.2886 59.9976C73.2886 58.767 74.1761 57.6667 76.4322 57.6667C78.4468 57.6667 79.4934 58.5581 80.4384 60.2085L81.2741 61.6729L81.9297 61.5444L81.0901 56.5952H80.3809L80.3579 58.7669C79.6237 57.59 78.3145 56.6469 76.2463 56.6469C73.6279 56.6469 72.0561 58.1133 72.0561 60.0244C72.0561 62.6696 75.0693 63.4804 76.875 63.9539C79.3362 64.5807 81.0115 65.1845 81.0115 66.9633C81.0115 68.5351 79.6774 69.4763 77.659 69.4763C75.5658 69.4763 74.2566 68.4297 72.9723 66.3346L72.1596 65.0005L71.4791 65.1308L72.3436 70.2373H73.0777L72.9992 67.7761C73.9941 69.4245 75.5122 70.4731 77.8162 70.4731C80.4883 70.4731 82.2422 69.0584 82.2422 66.8598C82.2422 64.32 80.0186 63.5859 77.1376 62.8537ZM120.132 36.5086C120.132 34.1279 119.139 32.1881 116.362 32.1881C114.242 32.1881 112.576 33.3133 111.466 35.0423C111.106 33.4475 110.054 32.1881 107.878 32.1881C105.967 32.1881 104.173 33.4149 103.084 35.071V32.3472L102.354 32.1383C101.255 33.3152 99.8388 33.8404 98.1615 33.8404V34.3905C99.3941 34.6244 100.757 34.5707 101.804 34.0493V44.4443L98.6887 44.7069V45.4641H105.524V44.7319L103.113 44.4693V36.3285C104.108 34.5995 105.756 33.3152 107.564 33.3152C109.659 33.3152 110.339 34.7317 110.339 36.8786V44.4693L107.774 44.7319V45.4641H114.242V44.7319L111.65 44.4693V36.7214C111.65 36.5623 111.65 36.3802 111.622 36.1943C112.722 34.3369 114.242 33.3152 116.023 33.3152C118.145 33.3152 118.823 34.7547 118.823 36.8498V44.4693L116.441 44.7319V45.4641H122.987V44.7319L120.132 44.4443L120.132 36.5086ZM97.5884 20.25V21.0091H105.051V20.25L102.014 19.9855V7.89028L101.278 7.65451C100.155 8.83145 98.7117 9.38158 97.0651 9.35474V9.93171C98.2938 10.1675 99.6547 10.1157 100.703 9.59243V19.9855L97.5884 20.25ZM85.543 62.3016C85.934 59.4992 87.7148 57.6935 90.2833 57.6935C92.4034 57.6935 94.5502 59.0832 94.6269 62.3016H85.543ZM90.3063 56.6469C86.6164 56.6469 84.1801 59.4742 84.1801 63.559C84.1801 67.6438 86.6413 70.4731 90.5421 70.4731C93.3982 70.4731 95.0467 69.137 95.7003 67.1205L94.8914 66.833C94.1515 68.5217 92.8346 69.4245 90.6993 69.4245C87.4043 69.4245 85.4625 67.1473 85.4625 63.5859V63.3233H95.8613C95.8863 63.1392 95.8863 62.7214 95.8863 62.4875C95.8863 59.6065 94.0787 56.6469 90.3063 56.6469ZM91.2476 44.9408C88.1864 44.9408 86.2216 42.585 86.2216 39.0772C86.2216 35.5406 88.1864 33.2366 91.2476 33.2366C94.3414 33.2366 96.3042 35.5675 96.3042 39.0772C96.3042 42.585 94.3414 44.9408 91.2476 44.9408ZM91.2476 32.1881C87.4043 32.1881 84.9144 34.9656 84.9144 39.0772C84.9144 43.1601 87.4043 45.9893 91.2246 45.9893C95.0717 45.9893 97.5885 43.1601 97.5885 39.0772C97.5885 34.9656 95.0717 32.1881 91.2476 32.1881ZM67.7893 56.8041L67.0552 56.5952C65.93 57.7721 64.4886 58.3222 62.8401 58.2954V58.8704C64.0688 59.1081 65.4048 59.0832 66.4514 58.558V66.3346C65.353 68.0655 63.4688 69.3747 61.4254 69.3747C59.384 69.3747 58.2301 68.0118 58.2301 65.9417V56.8041L57.5247 56.5952C56.4244 57.7721 55.2973 58.3222 53.6738 58.2954V58.8704C54.774 59.1081 55.9778 59.0832 56.9209 58.6385V66.0202C56.9209 68.378 58.0461 70.4731 61.2146 70.4731C63.44 70.4731 65.3588 69.2309 66.4801 67.5652L66.505 70.2124L66.5837 70.2622L70.6684 69.8692V69.1639H67.7893V56.8041ZM82.5298 9.69402V17.0815C82.5298 19.4373 83.655 21.5324 86.8235 21.5324C89.049 21.5324 90.9716 20.2922 92.091 18.6265L92.1122 21.2698L92.1927 21.3215L96.2774 20.9285V20.2231H93.3984V7.86337L92.6642 7.65443C91.539 8.83137 90.0995 9.3815 88.4491 9.35466V9.93163C89.6797 10.1674 91.0138 10.1406 92.0604 9.61727V17.3939C90.9621 19.1229 89.0778 20.4321 87.0364 20.4321C84.993 20.4321 83.8391 19.0692 83.8391 17.0009V7.86337L83.1299 7.65443C82.0334 8.83137 80.9063 9.3815 79.2828 9.35466V9.93163C80.3811 10.1674 81.5867 10.1406 82.5298 9.69402ZM53.256 9.61727V19.9854L50.1392 20.25V21.009H57.5497V20.2749L54.5652 20.0123V11.9999C55.6386 10.1923 57.5248 8.83137 59.5892 8.83137C61.6613 8.83137 62.8133 10.1923 62.8133 12.2893V20.0123L59.7732 20.2749V21.009H66.9249V20.25L64.1225 19.9854V12.159C64.1225 9.77445 62.9705 7.70619 59.8537 7.70619C57.6264 7.70619 55.6769 8.9598 54.5403 10.6907V7.86337L53.8042 7.65443C52.7327 8.83137 51.3161 9.3815 49.6159 9.35466V9.93163C50.8733 10.1674 52.2075 10.1406 53.256 9.61727ZM80.8028 42.008C80.1473 43.8692 78.5256 44.9407 76.5072 44.9407C73.5495 44.9407 71.7937 42.6904 71.7937 39.1289C71.7937 35.646 73.7604 33.2365 76.7717 33.2365C78.5256 33.2365 80.0418 34.1279 80.8028 35.5942V42.008ZM76.6126 32.188C72.9476 32.188 70.4864 35.0422 70.4864 39.1787C70.4864 43.2405 72.6563 45.9892 76.3002 45.9892C78.2879 45.9892 79.9728 45.0596 80.8297 43.4743L80.8547 45.7266L80.9332 45.7783L85.0697 45.3854V44.68H82.112V25.826L81.4047 25.617C80.2584 27.0872 78.8649 27.8693 77.2433 27.8425V28.4194C78.4911 28.6935 79.9383 28.421 80.8028 27.8176V34.2044C79.8578 32.9221 78.3914 32.188 76.6126 32.188ZM71.349 20.7463L73.9674 20.9802C77.0324 21.2581 77.9755 22.1341 77.9755 23.2862C77.9755 24.8829 76.35 26.1135 73.078 26.1135C70.1452 26.1135 68.4699 24.9346 68.4699 23.3647C68.4699 22.1859 69.4667 21.0607 71.349 20.7463ZM69.2021 12.6036C69.2021 10.4817 70.7989 8.72587 73.1834 8.72587C75.4855 8.72587 77.0592 10.4817 77.0592 12.6554C77.0592 14.6987 75.566 16.4776 73.1029 16.4776C70.8774 16.4776 69.2021 14.7236 69.2021 12.6036ZM67.2642 23.4452C67.2642 25.4598 69.1772 27.1371 73.0492 27.1371C77.1091 27.1371 79.231 25.4349 79.231 23.1807C79.231 20.6946 76.3232 20.0352 73.469 19.8033C71.349 19.6212 69.3842 19.5426 69.3842 18.4941C69.3842 17.9708 69.9094 17.4724 72.2403 17.4724H73.1029C76.2465 17.4724 78.263 15.3255 78.263 12.55C78.263 11.2925 77.7915 10.1156 76.9787 9.25108C77.1628 6.86845 79.2579 8.04731 79.2579 6.8167C79.2579 6.29148 78.9454 6.03079 78.4183 6.03079C77.2126 6.03079 76.3002 7.23265 76.143 8.54568C75.3571 8.02047 74.3891 7.70611 73.262 7.70611C70.0666 7.70611 67.9984 9.85297 67.9984 12.55C67.9984 14.5147 68.9932 16.006 70.4308 16.7919C69.02 16.9242 68.259 17.6583 68.259 18.6512C68.259 19.3586 68.7057 20.039 69.8807 20.432C68.3645 20.8249 67.2642 22.0555 67.2642 23.4452ZM48.646 42.8206C47.7297 43.8423 45.9222 44.9406 43.9862 44.9406C42.4393 44.9406 41.1588 44.2084 41.1588 42.7171C41.1588 40.8578 42.7555 39.1288 48.646 39.0234V42.8206ZM39.8745 42.7171C39.8745 44.68 41.3927 45.9892 43.7772 45.9892C45.9222 45.9892 47.6646 44.9272 48.7265 43.8691C48.9546 45.0116 49.7731 45.5981 50.9002 45.5981C52.1308 45.5981 52.9416 44.9406 53.2042 43.5797L52.6023 43.319C52.3896 44.1298 51.9985 44.5745 51.2931 44.5745C50.375 44.5745 49.9552 44.1049 49.9552 42.4296V36.7462C49.9552 34.1278 48.8818 32.1879 45.3989 32.1879C43.3574 32.1879 42.1786 32.7917 41.3678 33.524C40.6604 34.1795 40.4496 34.7814 40.4496 35.1475C40.4496 35.5942 40.764 35.9085 41.2355 35.9085C41.8642 35.9085 41.9428 35.3047 42.3089 34.6242C42.7555 33.8403 43.4341 33.2364 45.2954 33.2364C47.3885 33.2364 48.646 34.3616 48.646 36.6158V38.0803C43.0431 38.134 39.8745 39.7307 39.8745 42.7171ZM101.307 5.06088C101.934 5.06088 102.457 4.5625 102.457 3.93378C102.457 3.30697 101.934 2.80859 101.307 2.80859C100.677 2.80859 100.178 3.30697 100.178 3.93378C100.178 4.5625 100.677 5.06088 101.307 5.06088ZM43.2788 8.7527C45.3989 8.7527 47.5457 10.1405 47.6262 13.3608H38.5404C38.9315 10.5603 40.7122 8.7527 43.2788 8.7527ZM43.5415 21.5322C46.3937 21.5322 48.0441 20.1962 48.6977 18.1797L47.8869 17.8922C47.1489 19.5809 45.8321 20.4837 43.6967 20.4837C40.3978 20.4837 38.4599 18.2065 38.4599 14.6451V14.3844H48.8549C48.8818 14.2003 48.8818 13.7825 48.8818 13.5448C48.8818 10.6638 47.0761 7.70611 43.3057 7.70611C39.6119 7.70611 37.1776 10.5334 37.1776 14.6182C37.1776 18.703 39.6407 21.5322 43.5415 21.5322Z" fill="#100F0D"/>
<path d="M2.14258 69.9494H3.52845V36.4047V2.89844H2.14258V36.4354V69.9494Z" fill="#FF7B30"/>
<path d="M139.693 69.9494H141.081V36.4047V2.89844H139.693V36.4354V69.9494Z" fill="#FF7B30"/>
</svg>
