<svg width="159" height="66" viewBox="0 0 159 66" fill="none" xmlns="http://www.w3.org/2000/svg">
<g clip-path="url(#clip0_1598_11060)">
<mask id="mask0_1598_11060" style="mask-type:luminance" maskUnits="userSpaceOnUse" x="-317" y="-51" width="496" height="698">
<path fill-rule="evenodd" clip-rule="evenodd" d="M-316.389 646.488H178.131V-50.606H-316.389V646.488Z" fill="white"/>
</mask>
<g mask="url(#mask0_1598_11060)">
<mask id="mask1_1598_11060" style="mask-type:luminance" maskUnits="userSpaceOnUse" x="0" y="0" width="159" height="66">
<path fill-rule="evenodd" clip-rule="evenodd" d="M0.103516 65.125H158.35V0.0358734H0.103516V65.125Z" fill="white"/>
</mask>
<g mask="url(#mask1_1598_11060)">
<path d="M38.6655 23.6284V15.6726C38.6655 15.4791 38.5106 15.3242 38.317 15.3242H35.532C35.3385 15.3242 35.1836 15.4791 35.1836 15.6726V23.6284C35.1836 23.822 35.3385 23.9768 35.532 23.9768H38.317C38.5082 23.9768 38.6655 23.8196 38.6655 23.6284Z" fill="#706F6F"/>
<path d="M35.5325 6.71558H38.3175C38.5086 6.71558 38.6659 6.56072 38.6659 6.36715V1.97551C38.6659 1.7287 38.4143 1.55691 38.1868 1.65127C37.2093 2.05535 36.2608 2.54412 35.3462 3.11516C35.2445 3.17807 35.1816 3.29179 35.1816 3.41277V6.36473C35.1841 6.56072 35.3389 6.71558 35.5325 6.71558Z" fill="#706F6F"/>
<path d="M61.6727 30.108C65.9336 23.6766 65.9336 15.2562 61.6727 8.82724C61.5202 8.59737 61.1621 8.70867 61.1621 8.98209V29.9531C61.1621 30.2289 61.5226 30.3378 61.6727 30.108Z" fill="#706F6F"/>
<path d="M52.8641 23.9793H55.6491C55.8402 23.9793 55.9975 23.8245 55.9975 23.6309V3.42933C55.9975 3.30835 55.9346 3.19704 55.833 3.13171C54.9207 2.55826 53.9698 2.06707 52.9923 1.66299C52.7648 1.56863 52.5156 1.74042 52.5156 1.98722V23.6309C52.5156 23.8245 52.6705 23.9793 52.8641 23.9793Z" fill="#706F6F"/>
<path d="M46.9901 0.234406C46.044 0.166656 45.098 0.166656 44.1519 0.234406C43.9704 0.248924 43.8301 0.401361 43.8301 0.582834V32.2535C43.8301 32.4471 43.9874 32.6019 44.1785 32.6019H46.9635C47.1571 32.6019 47.3119 32.4446 47.3119 32.2535V0.580415C47.3119 0.401361 47.1716 0.246504 46.9901 0.234406Z" fill="#706F6F"/>
<path d="M9.13672 26.8875V32.2881C9.13672 32.4817 9.29158 32.6366 9.48515 32.6366H12.2702C12.4637 32.6366 12.6186 32.4817 12.6186 32.2881V26.8875C12.6186 26.6939 12.4637 26.5391 12.2702 26.5391H9.48515C9.29399 26.5391 9.13672 26.6963 9.13672 26.8875Z" fill="#706F6F"/>
<path d="M26.4688 24.3094V32.2942C26.4688 32.4877 26.6236 32.6426 26.8172 32.6426H29.6022C29.7933 32.6426 29.9506 32.4877 29.9506 32.2942V24.3094C29.9506 24.1158 29.7958 23.9609 29.6022 23.9609H26.8172C26.626 23.9609 26.4688 24.1158 26.4688 24.3094Z" fill="#706F6F"/>
<path d="M29.9506 14.9526V6.99687C29.9506 6.80329 29.7958 6.64844 29.6022 6.64844H26.8172C26.6236 6.64844 26.4688 6.80329 26.4688 6.99687V14.9526C26.4688 15.1462 26.6236 15.3011 26.8172 15.3011H29.6022C29.7958 15.2986 29.9506 15.1438 29.9506 14.9526Z" fill="#706F6F"/>
<path d="M26.4688 41.6492V49.605C26.4688 49.7986 26.6236 49.9534 26.8172 49.9534H29.6022C29.7958 49.9534 29.9506 49.7986 29.9506 49.605V41.6492C29.9506 41.4556 29.7958 41.3008 29.6022 41.3008H26.8172C26.6236 41.3008 26.4688 41.4556 26.4688 41.6492Z" fill="#706F6F"/>
<path d="M29.6022 58.5625H26.8172C26.626 58.5625 26.4688 58.7174 26.4688 58.9109V63.3026C26.4688 63.5494 26.7204 63.7212 26.9478 63.6268C27.9254 63.2227 28.8739 62.734 29.7885 62.1629C29.8901 62.1 29.953 61.9863 29.953 61.8653V58.9134C29.9506 58.7174 29.7958 58.5625 29.6022 58.5625Z" fill="#706F6F"/>
<path d="M3.45941 35.1676C-0.801574 41.599 -0.801574 50.0193 3.45941 56.4507C3.61185 56.6806 3.96995 56.5693 3.96995 56.2959V35.3249C3.97237 35.0466 3.61185 34.9377 3.45941 35.1676Z" fill="#706F6F"/>
<path d="M12.2702 41.3008H9.48515C9.29399 41.3008 9.13672 41.4556 9.13672 41.6492V61.8508C9.13672 61.9718 9.19721 62.0831 9.30125 62.1484C10.2135 62.7218 11.1644 63.213 12.1419 63.6171C12.3694 63.7115 12.621 63.5397 12.621 63.2929V41.6492C12.6186 41.4556 12.4637 41.3008 12.2702 41.3008Z" fill="#706F6F"/>
<path d="M18.1441 65.0457C19.0902 65.1135 20.0362 65.1135 20.9823 65.0457C21.1638 65.0312 21.3041 64.8787 21.3041 64.6949V33.0242C21.3041 32.8306 21.1468 32.6758 20.9557 32.6758H18.1707C17.9771 32.6758 17.8223 32.8331 17.8223 33.0242V64.6973C17.8223 64.8788 17.9626 65.0336 18.1441 65.0457Z" fill="#706F6F"/>
<path d="M55.9975 38.3897V32.989C55.9975 32.7955 55.8426 32.6406 55.6491 32.6406H52.8641C52.6705 32.6406 52.5156 32.7955 52.5156 32.989V38.3897C52.5156 38.5833 52.6705 38.7381 52.8641 38.7381H55.6491C55.8402 38.7381 55.9975 38.5808 55.9975 38.3897Z" fill="#706F6F"/>
<path d="M38.6655 40.97V32.9851C38.6655 32.7916 38.5106 32.6367 38.317 32.6367H35.532C35.3409 32.6367 35.1836 32.7916 35.1836 32.9851V40.97C35.1836 41.1635 35.3385 41.3184 35.532 41.3184H38.317C38.5082 41.3184 38.6655 41.1635 38.6655 40.97Z" fill="#706F6F"/>
<path d="M35.1836 50.325V58.2808C35.1836 58.4743 35.3385 58.6292 35.532 58.6292H38.317C38.5106 58.6292 38.6655 58.4743 38.6655 58.2808V50.325C38.6655 50.1314 38.5106 49.9766 38.317 49.9766H35.532C35.3385 49.979 35.1836 50.1338 35.1836 50.325Z" fill="#706F6F"/>
<path d="M38.3179 9.21094H32.9148C32.7213 9.21094 32.5664 9.36579 32.5664 9.55937V12.3444C32.5664 12.5379 32.7213 12.6928 32.9148 12.6928H38.3155C38.509 12.6928 38.6639 12.5379 38.6639 12.3444V9.55937C38.6663 9.36821 38.509 9.21094 38.3179 9.21094Z" fill="#706F6F"/>
<path d="M40.8996 26.5391H32.9148C32.7213 26.5391 32.5664 26.6939 32.5664 26.8875V29.6725C32.5664 29.8636 32.7213 30.0209 32.9148 30.0209H40.8996C41.0932 30.0209 41.2481 29.8661 41.2481 29.6725V26.8875C41.2481 26.6939 41.0932 26.5391 40.8996 26.5391Z" fill="#706F6F"/>
<path d="M50.2527 30.0209H58.2085C58.4021 30.0209 58.5569 29.8661 58.5569 29.6725V26.8875C58.5569 26.6939 58.4021 26.5391 58.2085 26.5391H50.2527C50.0592 26.5391 49.9043 26.6939 49.9043 26.8875V29.6725C49.9067 29.8661 50.0616 30.0209 50.2527 30.0209Z" fill="#706F6F"/>
<path d="M23.5581 26.5391H15.6023C15.4088 26.5391 15.2539 26.6939 15.2539 26.8875V29.6725C15.2539 29.8661 15.4088 30.0209 15.6023 30.0209H23.5581C23.7517 30.0209 23.9065 29.8661 23.9065 29.6725V26.8875C23.9065 26.6939 23.7517 26.5391 23.5581 26.5391Z" fill="#706F6F"/>
<path d="M6.64527 29.6725V26.8875C6.64527 26.6963 6.49041 26.5391 6.29684 26.5391H1.90519C1.65839 26.5391 1.4866 26.7907 1.58096 27.0182C1.98504 27.9957 2.47381 28.9442 3.04484 29.8588C3.10775 29.9604 3.22148 30.0233 3.34246 30.0233H6.29442C6.49041 30.0209 6.64527 29.8661 6.64527 29.6725Z" fill="#706F6F"/>
<path d="M30.0376 3.53168C23.6087 -0.729308 15.1859 -0.729308 8.75692 3.53168C8.52706 3.68411 8.63836 4.04222 8.91178 4.04222H29.8828C30.1586 4.04464 30.2675 3.68411 30.0376 3.53168Z" fill="#706F6F"/>
<path d="M23.9051 12.3444V9.55937C23.9051 9.36821 23.7502 9.21094 23.5567 9.21094H3.35511C3.23413 9.21094 3.12283 9.27143 3.0575 9.37547C2.48404 10.2877 1.99285 11.2386 1.58877 12.2161C1.49441 12.4436 1.6662 12.6928 1.91301 12.6928H23.5567C23.7502 12.6928 23.9051 12.5379 23.9051 12.3444Z" fill="#706F6F"/>
<path d="M0.162141 18.2163C0.0943907 19.1624 0.0943907 20.1085 0.162141 21.0546C0.176658 21.2361 0.329096 21.3764 0.512988 21.3764H32.1836C32.3772 21.3764 32.5321 21.2191 32.5321 21.028V18.243C32.5321 18.0494 32.3748 17.8945 32.1836 17.8945H0.510569C0.329096 17.8945 0.174239 18.0349 0.162141 18.2163Z" fill="#706F6F"/>
<path d="M26.8172 56.0678H32.2178C32.4114 56.0678 32.5662 55.9129 32.5662 55.7194V52.9344C32.5662 52.7408 32.4114 52.5859 32.2178 52.5859H26.8172C26.6236 52.5859 26.4688 52.7408 26.4688 52.9344V55.7194C26.4688 55.9105 26.626 56.0678 26.8172 56.0678Z" fill="#706F6F"/>
<path d="M24.2351 38.7397H32.22C32.4135 38.7397 32.5684 38.5848 32.5684 38.3912V35.6062C32.5684 35.4151 32.4135 35.2578 32.22 35.2578H24.2351C24.0416 35.2578 23.8867 35.4127 23.8867 35.6062V38.3912C23.8867 38.5824 24.0416 38.7397 24.2351 38.7397Z" fill="#706F6F"/>
<path d="M14.8804 35.2578H6.9246C6.73103 35.2578 6.57617 35.4127 6.57617 35.6062V38.3912C6.57617 38.5848 6.73103 38.7397 6.9246 38.7397H14.8804C15.0739 38.7397 15.2288 38.5848 15.2288 38.3912V35.6062C15.2264 35.4127 15.0715 35.2578 14.8804 35.2578Z" fill="#706F6F"/>
<path d="M41.5769 38.7397H49.5327C49.7263 38.7397 49.8811 38.5848 49.8811 38.3912V35.6062C49.8811 35.4127 49.7263 35.2578 49.5327 35.2578H41.5769C41.3834 35.2578 41.2285 35.4127 41.2285 35.6062V38.3912C41.2285 38.5824 41.3834 38.7397 41.5769 38.7397Z" fill="#706F6F"/>
<path d="M58.4902 35.6048V38.3898C58.4902 38.5809 58.6451 38.7382 58.8387 38.7382H63.2303C63.4771 38.7382 63.6489 38.4865 63.5545 38.2591C63.1505 37.2816 62.6617 36.3331 62.0907 35.4184C62.0277 35.3168 61.914 35.2539 61.793 35.2539H58.8411C58.6451 35.2563 58.4902 35.4112 58.4902 35.6048Z" fill="#706F6F"/>
<path d="M35.0955 61.7449C41.5269 66.0059 49.9472 66.0059 56.3762 61.7449C56.606 61.5925 56.4947 61.2344 56.2213 61.2344H35.2503C34.9745 61.2344 34.8656 61.5949 35.0955 61.7449Z" fill="#706F6F"/>
<path d="M41.2285 52.9368V55.7218C41.2285 55.9129 41.3834 56.0702 41.5769 56.0702H61.7785C61.8995 56.0702 62.0108 56.0097 62.0761 55.9057C62.6496 54.9935 63.1408 54.0426 63.5448 53.065C63.6392 52.8376 63.4674 52.5859 63.2206 52.5859H41.5769C41.3834 52.5884 41.2285 52.7432 41.2285 52.9368Z" fill="#706F6F"/>
<path d="M64.9734 47.0624C65.0412 46.1163 65.0412 45.1702 64.9734 44.2242C64.9589 44.0427 64.8065 43.9023 64.625 43.9023H32.9519C32.7584 43.9023 32.6035 44.0596 32.6035 44.2508V47.0358C32.6035 47.2293 32.7608 47.3842 32.9519 47.3842H64.625C64.8065 47.3842 64.9613 47.2439 64.9734 47.0624Z" fill="#706F6F"/>
<path d="M80.0042 5.53831H78.0999C77.9644 5.53831 77.8652 5.427 77.8652 5.30118V4.28009C77.8652 4.15669 77.9644 4.04297 78.0999 4.04297H83.5344C83.6724 4.04297 83.7716 4.15427 83.7716 4.28009V5.30118C83.7716 5.42458 83.6724 5.53831 83.5344 5.53831H81.6326V12.5141C81.6326 12.6375 81.5213 12.7512 81.3955 12.7512H80.2389C80.1131 12.7512 80.0018 12.6399 80.0018 12.5141V5.53831H80.0042Z" fill="#706F6F"/>
<path d="M89.4154 3.91797C91.9028 3.91797 93.8917 5.92143 93.8917 8.40882C93.8917 10.8962 91.9004 12.8731 89.4154 12.8731C86.928 12.8731 84.9512 10.8962 84.9512 8.40882C84.9512 5.92143 86.928 3.91797 89.4154 3.91797ZM89.4154 11.2567C90.9833 11.2567 92.2754 9.97674 92.2754 8.40882C92.2754 6.84089 90.9809 5.53671 89.4154 5.53671C87.8499 5.53671 86.5675 6.84331 86.5675 8.40882C86.5675 9.97432 87.8475 11.2567 89.4154 11.2567Z" fill="#706F6F"/>
<path d="M96.1138 4.14299C96.1138 4.01959 96.225 3.91797 96.3509 3.91797H96.6606L101.834 9.41539H101.846V4.27849C101.846 4.15509 101.945 4.04137 102.083 4.04137H103.227C103.353 4.04137 103.465 4.15267 103.465 4.27849V12.648C103.465 12.7714 103.353 12.8731 103.227 12.8731H102.93L97.7301 7.16512H97.718V12.5125C97.718 12.6359 97.6188 12.7497 97.4808 12.7497H96.3485C96.2251 12.7497 96.1113 12.6383 96.1113 12.5125V4.14299H96.1138Z" fill="#706F6F"/>
<path d="M107.986 8.55801L105.15 4.4035C105.051 4.24138 105.15 4.04297 105.349 4.04297H106.617C106.716 4.04297 106.779 4.10588 106.815 4.15427L108.806 7.01429L110.795 4.15427C110.832 4.10588 110.894 4.04297 110.994 4.04297H112.274C112.472 4.04297 112.571 4.24138 112.472 4.4035L109.6 8.54592V12.5141C109.6 12.6375 109.489 12.7512 109.363 12.7512H108.218C108.083 12.7512 107.984 12.6399 107.984 12.5141V8.55801H107.986Z" fill="#706F6F"/>
<path d="M117.508 4.28009C117.508 4.15669 117.607 4.04297 117.745 4.04297H120.593C122.071 4.04297 123.218 5.03744 123.218 6.34405C123.218 7.30222 122.434 8.04747 121.851 8.32089C122.509 8.5314 123.467 9.20406 123.467 10.3485C123.467 11.7423 122.272 12.7488 120.757 12.7488H117.747C117.612 12.7488 117.51 12.6375 117.51 12.5117V4.28009H117.508ZM120.443 7.70146C121.077 7.70146 121.512 7.20302 121.512 6.58117C121.512 5.95932 121.077 5.52379 120.443 5.52379H119.112V7.69904H120.443V7.70146ZM120.617 11.2825C121.239 11.2825 121.737 10.7962 121.737 10.1501C121.737 9.52829 121.115 9.06856 120.469 9.06856H119.114V11.2825H120.617Z" fill="#706F6F"/>
<path d="M125.771 4.28009C125.771 4.15669 125.871 4.04297 126.009 4.04297H127.153C127.279 4.04297 127.39 4.15427 127.39 4.28009V11.2583H130.562C130.7 11.2583 130.8 11.3696 130.8 11.4955V12.5141C130.8 12.6375 130.7 12.7512 130.562 12.7512H126.011C125.876 12.7512 125.774 12.6399 125.774 12.5141V4.28009H125.771Z" fill="#706F6F"/>
<path d="M131.914 12.4254L135.783 4.05589C135.819 3.98088 135.882 3.91797 135.993 3.91797H136.119C136.243 3.91797 136.293 3.98088 136.33 4.05589L140.16 12.4254C140.235 12.5875 140.136 12.7497 139.949 12.7497H138.868C138.682 12.7497 138.594 12.6746 138.507 12.5004L137.898 11.1575H134.176L133.566 12.5004C133.518 12.6238 133.404 12.7497 133.206 12.7497H132.124C131.938 12.7497 131.839 12.5875 131.914 12.4254ZM137.285 9.77591L136.042 7.0393H136.003L134.784 9.77591H137.285Z" fill="#706F6F"/>
<path d="M141.883 4.28009C141.883 4.15669 141.994 4.04297 142.12 4.04297H143.277C143.4 4.04297 143.511 4.15427 143.511 4.28009V12.5141C143.511 12.6375 143.4 12.7512 143.277 12.7512H142.12C141.997 12.7512 141.883 12.6399 141.883 12.5141V4.28009Z" fill="#706F6F"/>
<path d="M146.372 4.28009C146.372 4.15669 146.471 4.04297 146.609 4.04297H150.166C151.658 4.04297 152.876 5.23585 152.876 6.71667C152.876 7.86116 152.116 8.79272 151.034 9.22825L152.738 12.3883C152.825 12.5504 152.738 12.7488 152.527 12.7488H151.223C151.112 12.7488 151.049 12.6859 151.025 12.6375L149.369 9.34198H147.988V12.5141C147.988 12.6375 147.877 12.7512 147.751 12.7512H146.606C146.471 12.7512 146.369 12.6399 146.369 12.5141V4.28009H146.372ZM150.028 8.01118C150.688 8.01118 151.259 7.44014 151.259 6.74329C151.259 6.08514 150.688 5.53589 150.028 5.53589H148V8.01118H150.028Z" fill="#706F6F"/>
<path d="M78.834 20.4403C78.834 20.3168 78.9453 20.2031 79.0711 20.2031H80.2277C80.3511 20.2031 80.4624 20.3144 80.4624 20.4403V28.6743C80.4624 28.7977 80.3511 28.9114 80.2277 28.9114H79.0711C78.9477 28.9114 78.834 28.8001 78.834 28.6743V20.4403Z" fill="#706F6F"/>
<path d="M83.3227 20.3071C83.3227 20.1837 83.434 20.082 83.5599 20.082H83.8696L89.0428 25.5795H89.0549V20.4426C89.0549 20.3192 89.1541 20.2054 89.292 20.2054H90.4365C90.5623 20.2054 90.6736 20.3167 90.6736 20.4426V28.8121C90.6736 28.9355 90.5623 29.0371 90.4365 29.0371H90.1389L84.939 23.3292H84.9269V28.6766C84.9269 28.8 84.8277 28.9137 84.6898 28.9137H83.5574C83.434 28.9137 83.3203 28.8024 83.3203 28.6766V20.3071H83.3227Z" fill="#706F6F"/>
<path d="M93.0179 27.6903L93.4655 26.9184C93.5647 26.7442 93.7752 26.7442 93.8889 26.8313C93.9518 26.87 94.9584 27.6032 95.7666 27.6032C96.4126 27.6032 96.899 27.1798 96.899 26.645C96.899 26.0111 96.3642 25.5755 95.3189 25.1521C94.1503 24.6803 92.9816 23.9326 92.9816 22.4663C92.9816 21.3605 93.8018 20.0781 95.7811 20.0781C97.049 20.0781 98.0193 20.7242 98.2685 20.9129C98.3943 20.9879 98.4306 21.1984 98.3435 21.3242L97.8717 22.0332C97.7724 22.1832 97.5861 22.2824 97.4361 22.1832C97.3369 22.1203 96.3908 21.4985 95.7061 21.4985C94.9971 21.4985 94.6124 21.9703 94.6124 22.3695C94.6124 22.9551 95.0721 23.3519 96.0811 23.7632C97.2861 24.2496 98.6798 24.9706 98.6798 26.5749C98.6798 27.8548 97.574 29.038 95.8198 29.038C94.2519 29.038 93.3324 28.3049 93.0832 28.0678C92.967 27.9516 92.9066 27.8887 93.0179 27.6903Z" fill="#706F6F"/>
<path d="M102.032 21.6985H100.127C99.9918 21.6985 99.8926 21.5872 99.8926 21.4613V20.4402C99.8926 20.3168 99.9918 20.2031 100.127 20.2031H105.562C105.7 20.2031 105.799 20.3144 105.799 20.4402V21.4613C105.799 21.5847 105.7 21.6985 105.562 21.6985H103.66V28.6743C103.66 28.7977 103.549 28.9114 103.423 28.9114H102.266C102.14 28.9114 102.029 28.8001 102.029 28.6743V21.6985H102.032Z" fill="#706F6F"/>
<path d="M107.686 20.4403C107.686 20.3168 107.797 20.2031 107.923 20.2031H109.079C109.203 20.2031 109.314 20.3144 109.314 20.4403V28.6743C109.314 28.7977 109.203 28.9114 109.079 28.9114H107.923C107.799 28.9114 107.686 28.8001 107.686 28.6743V20.4403Z" fill="#706F6F"/>
<path d="M113.344 21.6985H111.44C111.304 21.6985 111.205 21.5872 111.205 21.4613V20.4402C111.205 20.3168 111.304 20.2031 111.44 20.2031H116.874C117.012 20.2031 117.111 20.3144 117.111 20.4402V21.4613C117.111 21.5847 117.012 21.6985 116.874 21.6985H114.972V28.6743C114.972 28.7977 114.861 28.9114 114.735 28.9114H113.579C113.453 28.9114 113.342 28.8001 113.342 28.6743V21.6985H113.344Z" fill="#706F6F"/>
<path d="M118.873 20.4427C118.873 20.3193 118.984 20.2055 119.11 20.2055H120.291C120.429 20.2055 120.528 20.3168 120.528 20.4427V25.5287C120.528 26.5861 121.249 27.4185 122.331 27.4185C123.412 27.4185 124.145 26.5837 124.145 25.5408V20.4402C124.145 20.3168 124.245 20.2031 124.383 20.2031H125.563C125.687 20.2031 125.8 20.3144 125.8 20.4402V25.6134C125.8 27.5032 124.295 29.0348 122.331 29.0348C120.378 29.0348 118.873 27.5056 118.873 25.6134V20.4427Z" fill="#706F6F"/>
<path d="M129.701 21.6985H127.797C127.662 21.6985 127.562 21.5872 127.562 21.4613V20.4402C127.562 20.3168 127.662 20.2031 127.797 20.2031H133.232C133.37 20.2031 133.469 20.3144 133.469 20.4402V21.4613C133.469 21.5847 133.37 21.6985 133.232 21.6985H131.33V28.6743C131.33 28.7977 131.219 28.9114 131.093 28.9114H129.936C129.81 28.9114 129.699 28.8001 129.699 28.6743V21.6985H129.701Z" fill="#706F6F"/>
<path d="M135.357 20.4403C135.357 20.3168 135.457 20.2031 135.595 20.2031H140.656C140.794 20.2031 140.894 20.3144 140.894 20.4403V21.4613C140.894 21.5847 140.794 21.6985 140.656 21.6985H136.976V23.7382H140.049C140.173 23.7382 140.286 23.8495 140.286 23.9753V25.0085C140.286 25.1464 140.175 25.2457 140.049 25.2457H136.976V27.4233H140.656C140.794 27.4233 140.894 27.5346 140.894 27.6605V28.6791C140.894 28.8025 140.794 28.9162 140.656 28.9162H135.595C135.459 28.9162 135.357 28.8049 135.357 28.6791V20.4403Z" fill="#706F6F"/>
<path d="M78.834 36.6004C78.834 36.477 78.9332 36.3633 79.0711 36.3633H84.133C84.2709 36.3633 84.3701 36.4746 84.3701 36.6004V37.6215C84.3701 37.7449 84.2709 37.8586 84.133 37.8586H80.4527V40.196H83.5257C83.6491 40.196 83.7628 40.3073 83.7628 40.4331V41.4542C83.7628 41.5776 83.6515 41.6913 83.5257 41.6913H80.4527V44.8369C80.4527 44.9603 80.3414 45.074 80.2156 45.074H79.0711C78.9356 45.074 78.834 44.9627 78.834 44.8369V36.6004Z" fill="#706F6F"/>
<path d="M90.2826 36.2422C92.77 36.2422 94.7589 38.2456 94.7589 40.733C94.7589 43.2204 92.7676 45.1973 90.2826 45.1973C87.7952 45.1973 85.8184 43.2204 85.8184 40.733C85.8184 38.2456 87.7952 36.2422 90.2826 36.2422ZM90.2826 43.581C91.8505 43.581 93.1426 42.301 93.1426 40.733C93.1426 39.1651 91.8481 37.8609 90.2826 37.8609C88.7171 37.8609 87.4347 39.1675 87.4347 40.733C87.4347 42.2985 88.7171 43.581 90.2826 43.581Z" fill="#706F6F"/>
<path d="M96.9848 36.6004C96.9848 36.477 97.084 36.3633 97.222 36.3633H100.779C102.272 36.3633 103.489 37.5562 103.489 39.037C103.489 40.1815 102.729 41.113 101.647 41.5486L103.351 44.7086C103.438 44.8707 103.351 45.0691 103.14 45.0691H101.836C101.725 45.0691 101.662 45.0062 101.638 44.9578L99.9828 41.6623H98.6012V44.8344C98.6012 44.9578 98.4899 45.0716 98.364 45.0716H97.2195C97.084 45.0716 96.9824 44.9603 96.9824 44.8344V36.6004H96.9848ZM100.641 40.3315C101.301 40.3315 101.873 39.7605 101.873 39.0636C101.873 38.4055 101.301 37.8562 100.641 37.8562H98.6133V40.3315H100.641Z" fill="#706F6F"/>
<path d="M113.046 36.2422C114.167 36.2422 115.236 36.6777 116.08 37.3988C116.18 37.498 116.192 37.648 116.093 37.7472L115.321 38.5554C115.222 38.6546 115.11 38.6546 114.996 38.5554C114.462 38.0835 113.804 37.8343 113.119 37.8343C111.563 37.8343 110.334 39.1651 110.334 40.7209C110.334 42.2623 111.565 43.5689 113.131 43.5689C113.828 43.5689 114.363 43.3583 114.612 43.2567V42.1993H113.617C113.479 42.1993 113.38 42.1001 113.38 41.9767V40.9944C113.38 40.8564 113.479 40.7572 113.617 40.7572H116.005C116.129 40.7572 116.231 40.8685 116.231 40.9944V44.1786C116.231 44.2778 116.182 44.3407 116.131 44.377C116.131 44.377 114.851 45.1852 113.046 45.1852C110.571 45.1852 108.582 43.2204 108.582 40.733C108.582 38.2456 110.571 36.2422 113.046 36.2422Z" fill="#706F6F"/>
<path d="M118.65 36.6004C118.65 36.477 118.75 36.3633 118.888 36.3633H120.032C120.158 36.3633 120.269 36.4746 120.269 36.6004V43.5786H123.441C123.579 43.5786 123.678 43.6899 123.678 43.8158V44.8344C123.678 44.9578 123.579 45.0716 123.441 45.0716H118.89C118.754 45.0716 118.653 44.9603 118.653 44.8344V36.6004H118.65Z" fill="#706F6F"/>
<path d="M129.283 36.2422C131.77 36.2422 133.759 38.2456 133.759 40.733C133.759 43.2204 131.768 45.1973 129.283 45.1973C126.795 45.1973 124.818 43.2204 124.818 40.733C124.816 38.2456 126.795 36.2422 129.283 36.2422ZM129.283 43.581C130.851 43.581 132.143 42.301 132.143 40.733C132.143 39.1651 130.848 37.8609 129.283 37.8609C127.717 37.8609 126.435 39.1675 126.435 40.733C126.435 42.2985 127.715 43.581 129.283 43.581Z" fill="#706F6F"/>
<path d="M135.979 36.6004C135.979 36.477 136.078 36.3633 136.216 36.3633H139.064C140.542 36.3633 141.689 37.3578 141.689 38.6644C141.689 39.6225 140.905 40.3678 140.322 40.6412C140.98 40.8517 141.938 41.5244 141.938 42.6689C141.938 44.0626 140.743 45.0691 139.228 45.0691H136.218C136.083 45.0691 135.981 44.9578 135.981 44.832V36.6004H135.979ZM138.914 40.0218C139.547 40.0218 139.983 39.5233 139.983 38.9015C139.983 38.2796 139.547 37.8441 138.914 37.8441H137.583V40.0194H138.914V40.0218ZM139.088 43.6028C139.71 43.6028 140.208 43.1165 140.208 42.4704C140.208 41.8486 139.586 41.3889 138.94 41.3889H137.585V43.6028H139.088Z" fill="#706F6F"/>
<path d="M143.113 44.7496L146.982 36.3801C147.018 36.3051 147.081 36.2422 147.193 36.2422H147.318C147.442 36.2422 147.493 36.3051 147.529 36.3801L151.359 44.7496C151.434 44.9118 151.335 45.0739 151.149 45.0739H150.067C149.881 45.0739 149.794 44.9989 149.707 44.8246L149.097 43.4817H145.378L144.768 44.8246C144.72 44.948 144.606 45.0739 144.408 45.0739H143.326C143.137 45.0739 143.038 44.9118 143.113 44.7496ZM148.485 42.1001L147.241 39.3635H147.202L145.983 42.1001H148.485Z" fill="#706F6F"/>
<path d="M153.084 36.6004C153.084 36.477 153.183 36.3633 153.321 36.3633H154.466C154.591 36.3633 154.703 36.4746 154.703 36.6004V43.5786H157.875C158.013 43.5786 158.112 43.6899 158.112 43.8158V44.8344C158.112 44.9578 158.013 45.0716 157.875 45.0716H153.324C153.188 45.0716 153.086 44.9603 153.086 44.8344V36.6004H153.084Z" fill="#706F6F"/>
<path d="M82.6916 52.4023C83.9474 52.4023 84.8547 52.7992 85.7016 53.5589C85.8129 53.6581 85.8129 53.8082 85.7137 53.9074L84.9539 54.6913C84.8668 54.7905 84.7434 54.7905 84.6442 54.6913C84.1216 54.2316 83.4247 53.9582 82.7303 53.9582C81.1382 53.9582 79.9574 55.289 79.9574 56.8569C79.9574 58.4127 81.1527 59.729 82.7448 59.729C83.49 59.729 84.124 59.4435 84.6466 59.0201C84.7458 58.9329 84.8838 58.945 84.9563 59.0201L85.7282 59.8161C85.8274 59.9032 85.8032 60.0653 85.7161 60.1524C84.8717 60.9727 83.8022 61.3598 82.694 61.3598C80.2066 61.3598 78.2031 59.383 78.2031 56.8956C78.2007 54.4058 80.2018 52.4023 82.6916 52.4023Z" fill="#706F6F"/>
<path d="M87.9336 52.7606C87.9336 52.6372 88.0449 52.5234 88.1707 52.5234H89.3273C89.4628 52.5234 89.562 52.6347 89.562 52.7606V56.0561H93.6173V52.7606C93.6173 52.6372 93.7165 52.5234 93.8545 52.5234H94.9989C95.1223 52.5234 95.2361 52.6347 95.2361 52.7606V60.9946C95.2361 61.118 95.1248 61.2317 94.9989 61.2317H93.8545C93.7165 61.2317 93.6173 61.1204 93.6173 60.9946V57.5611H89.562V60.9946C89.562 61.118 89.4628 61.2317 89.3273 61.2317H88.1707C88.0473 61.2317 87.9336 61.1204 87.9336 60.9946V52.7606Z" fill="#706F6F"/>
<path d="M96.9568 60.9098L100.826 52.5403C100.862 52.4653 100.925 52.4023 101.036 52.4023H101.162C101.286 52.4023 101.336 52.4653 101.373 52.5403L105.203 60.9098C105.278 61.0719 105.179 61.234 104.992 61.234H103.911C103.725 61.234 103.637 61.159 103.55 60.9848L102.941 59.6419H99.2216L98.6118 60.9848C98.5634 61.1082 98.4497 61.234 98.2513 61.234H97.1697C96.981 61.234 96.8818 61.0719 96.9568 60.9098ZM102.331 58.2603L101.087 55.5237H101.048L99.8289 58.2603H102.331Z" fill="#706F6F"/>
<path d="M106.928 52.6274C106.928 52.504 107.04 52.4023 107.165 52.4023H107.475L112.648 57.8998H112.66V52.7629C112.66 52.6395 112.76 52.5257 112.897 52.5257H114.042C114.168 52.5257 114.279 52.637 114.279 52.7629V61.1324C114.279 61.2558 114.168 61.3574 114.042 61.3574H113.744L108.545 55.6495H108.532V60.9969C108.532 61.1203 108.433 61.234 108.295 61.234H107.163C107.039 61.234 106.926 61.1227 106.926 60.9969V52.6274H106.928Z" fill="#706F6F"/>
<path d="M120.978 52.4023C122.098 52.4023 123.168 52.8379 124.012 53.5589C124.111 53.6581 124.123 53.8082 124.024 53.9074L123.252 54.7155C123.153 54.8147 123.042 54.8147 122.928 54.7155C122.393 54.2437 121.735 53.9945 121.05 53.9945C119.495 53.9945 118.265 55.3253 118.265 56.8811C118.265 58.4224 119.497 59.729 121.063 59.729C121.759 59.729 122.294 59.5185 122.543 59.4169V58.3595H121.549C121.411 58.3595 121.312 58.2603 121.312 58.1369V57.1545C121.312 57.0166 121.411 56.9174 121.549 56.9174H123.937C124.061 56.9174 124.162 57.0287 124.162 57.1545V60.3388C124.162 60.438 124.114 60.5009 124.063 60.5372C124.063 60.5372 122.783 61.3453 120.978 61.3453C118.503 61.3453 116.514 59.3806 116.514 56.8932C116.514 54.4058 118.503 52.4023 120.978 52.4023Z" fill="#706F6F"/>
<path d="M126.58 52.7606C126.58 52.6372 126.679 52.5234 126.817 52.5234H131.879C132.017 52.5234 132.116 52.6347 132.116 52.7606V53.7816C132.116 53.9051 132.017 54.0188 131.879 54.0188H128.199V56.0585H131.272C131.395 56.0585 131.509 56.1698 131.509 56.2957V57.3288C131.509 57.4668 131.398 57.566 131.272 57.566H128.199V59.7436H131.879C132.017 59.7436 132.116 59.8549 132.116 59.9808V60.9994C132.116 61.1228 132.017 61.2366 131.879 61.2366H126.817C126.682 61.2366 126.58 61.1253 126.58 60.9994V52.7606Z" fill="#706F6F"/>
</g>
</g>
</g>
<defs>
<clipPath id="clip0_1598_11060">
<rect width="158" height="64.9117" fill="white" transform="translate(0.111328 0.183594)"/>
</clipPath>
</defs>
</svg>
